<?xml version="1.0" encoding="utf-8"?>
<!-- Generator: Adobe Illustrator 25.4.3, SVG Export Plug-In . SVG Version: 6.00 Build 0)  -->
<svg version="1.0" id="katman_2" xmlns="http://www.w3.org/2000/svg" xmlns:xlink="http://www.w3.org/1999/xlink" x="0px" y="0px"
	 viewBox="0 0 32 32" enable-background="new 0 0 32 32" xml:space="preserve">
<g>
	<g id="Group_1" transform="translate(892.902 717.726)">
		<path id="Polygon_1" fill="#1D86CC" d="M-862.4-695.9c0,1.5-0.8,3-2.2,3.8l-10.2,5.8c-1.3,0.8-3,0.8-4.3,0l-10.2-5.8
			c-1.3-0.8-2.2-2.2-2.2-3.8v-11.7c0-1.5,0.8-3,2.2-3.8l10.2-5.8c1.3-0.8,3-0.8,4.3,0l10.2,5.8c1.3,0.8,2.2,2.2,2.2,3.8V-695.9z"/>
	</g>
	<path id="Path_83" fill="#FFFFFF" d="M14.7,2.2L4.7,8c-0.8,0.4-1.3,1.3-1.3,2.2l0,11.6c0,0.9,0.5,1.7,1.3,2.2l10.1,5.8
		c0.8,0.4,1.7,0.4,2.5,0l10-5.8c0.8-0.4,1.3-1.3,1.3-2.2l0-11.6c0-0.9-0.5-1.7-1.3-2.2L17.3,2.2C16.5,1.8,15.5,1.8,14.7,2.2
		L14.7,2.2z"/>
	<path id="Path_84" fill="#2D374B" d="M11.4,25.8c0-0.1,0-0.1,0.1-0.2c3-5.1,6-10.2,9-15.3c0-0.1,0.1-0.1,0.1-0.2c0,0-0.1,0-0.1,0
		c-1.3,0-2.6,0-3.9,0c-0.1,0-0.2,0.1-0.3,0.2c-1,1.6-1.9,3.2-2.9,4.8c-2.1,3.4-4.1,6.8-6.2,10.2c0,0,0,0.1-0.1,0.1
		c0,0.1-0.1,0.1-0.2,0c-0.3-0.2-0.6-0.4-1-0.6l9.2-14.7c0-0.1-0.1,0-0.1,0c-0.5,0-1,0-1.5,0c-0.7,0-1.4,0.1-2,0.3
		c-0.6,0.2-1.1,0.6-1.4,1.2c-1.7,2.6-3.4,5.2-5,7.8c0,0-0.1,0.1-0.1,0.1c-0.1,0-0.1-0.1-0.1-0.1c0-0.1,0-0.2,0-0.3
		c0-2.9,0-5.8,0-8.6c0-0.5,0.3-1,0.7-1.2C8,8,10.2,6.7,12.4,5.5c1-0.6,2-1.1,2.9-1.7c0.4-0.3,0.9-0.3,1.2,0c1.8,1.1,3.6,2.1,5.4,3.1
		c1.4,0.8,2.7,1.6,4.1,2.3c0.1,0.1,0.2,0.1,0.3,0.2c0.3,0.2,0.5,0.5,0.5,0.9c0,3.1,0,6.3,0,9.4c0,0.1,0,0.2,0,0.2
		c-0.1,0.1-0.1,0-0.2-0.1c-0.2-0.2-0.3-0.5-0.5-0.7c-1.2-1.9-2.4-3.8-3.6-5.7c-0.4-0.6-0.8-1.3-1.2-1.9c-0.1-0.1-0.1-0.2-0.2,0
		c-0.6,1-1.2,2.1-1.8,3.1c-0.1,0.1-0.1,0.3,0,0.4c0.5,0.8,1,1.6,1.5,2.4l2.6,4.2c0.3,0.6,0.7,1.1,1,1.7c0.1,0.1,0.1,0.2,0.1,0.3
		c-0.1,0.1-0.2,0.2-0.3,0.2c-0.2,0.1-0.4,0.3-0.6,0.3c-0.1,0-0.2-0.1-0.2-0.2c-0.8-1.2-1.6-2.5-2.4-3.7c-0.8-1.3-1.6-2.6-2.4-3.8
		c-0.1-0.2-0.1-0.2-0.2,0c-0.7,1.2-1.4,2.4-2.1,3.6c-0.1,0.1-0.1,0.3,0,0.4c1,1.5,1.9,3,2.8,4.4c0.3,0.4,0.5,0.8,0.8,1.2
		C20,26,20,26.1,20,26.2c-0.2,0.2-0.5,0.4-0.8,0.5c-0.9,0.5-1.8,1-2.7,1.5c-0.3,0.2-0.7,0.2-1,0c-1.3-0.8-2.6-1.5-3.9-2.3
		C11.6,26,11.5,25.9,11.4,25.8z"/>
	<path id="Path_85" fill="#96BEDC" d="M26.9,19.9c0-0.1,0-0.2,0-0.2c0-3.1,0-6.2,0-9.4c0-0.4-0.2-0.8-0.5-0.9
		c-3.3-1.9-6.6-3.8-9.8-5.7c-0.3-0.2-0.7-0.2-1,0c-1.8,1.1-3.6,2.1-5.5,3.2C8.6,7.7,7.1,8.6,5.7,9.4c-0.3,0.2-0.5,0.5-0.5,0.9
		c0,3,0,6,0,9c0,0.1,0,0.1,0,0.2c-0.3,0.6-0.7,1.1-1.1,1.7C4,21.5,3.8,21.7,3.6,22c0,0-0.1,0.1-0.1,0.2c0-0.1,0-0.1,0-0.2
		c0-4,0-7.9,0-11.9c0-0.9,0.5-1.7,1.2-2.2C6,7.2,7.3,6.5,8.5,5.8c1.1-0.6,2.2-1.3,3.2-1.9c1-0.6,2-1.2,3-1.7
		c0.8-0.4,1.8-0.4,2.5,0.1c0.8,0.5,1.6,0.9,2.5,1.4c0.8,0.4,1.5,0.9,2.3,1.3c0.7,0.4,1.4,0.8,2.1,1.2C25,6.6,25.7,7,26.4,7.4
		c0.3,0.2,0.6,0.4,0.9,0.5C28,8.3,28.5,9,28.6,9.8c0,0.1,0,0.2,0,0.3c0,3.9,0,7.8,0,11.7c0,0.7-0.3,1.5-0.9,1.9
		c-0.2,0.1-0.3,0.2-0.5,0.3c-1.1,0.6-2.1,1.2-3.2,1.8c-1.1,0.6-2.2,1.3-3.4,1.9c-1.1,0.6-2.2,1.3-3.2,1.9c-0.3,0.2-0.6,0.3-0.9,0.4
		c-0.5,0.1-1.1,0-1.6-0.2c-0.5-0.3-1.1-0.6-1.6-0.9c-0.7-0.4-1.4-0.8-2.1-1.2c-0.2-0.1-0.4-0.2-0.6-0.3c-0.1,0-0.1-0.1-0.1-0.2
		c0.3-0.4,0.5-0.9,0.8-1.3c0,0,0,0,0.1,0c0.2,0.1,0.5,0.2,0.7,0.4c1.2,0.7,2.3,1.3,3.5,2c0.3,0.2,0.6,0.2,0.9,0
		c1.1-0.6,2.2-1.3,3.3-1.9c0.1,0,0.1-0.1,0.2-0.1c0.1-0.1,0.2-0.2,0.4-0.3c1-0.6,2-1.2,3-1.7c0.1,0,0.2-0.1,0.3-0.1l1-0.6
		c0.1-0.1,0.2-0.2,0.3-0.2c0.5-0.3,1-0.6,1.5-0.8c0.3-0.2,0.5-0.5,0.4-0.8c0-0.5,0-1,0-1.5C26.8,20.1,26.8,20,26.9,19.9z"/>
	<path id="Path_90" fill="#28A0F0" d="M26.9,19.9c0,0.6,0,1.2,0,1.8c0,0.3-0.2,0.6-0.4,0.7c-0.6,0.4-1.2,0.7-1.9,1.1
		c-0.2-0.5-0.5-0.9-0.8-1.3c-1.4-2.3-2.8-4.6-4.2-6.9c-0.1-0.1-0.2-0.3-0.3-0.4c-0.1-0.1-0.1-0.2,0-0.3c0.3-0.6,0.7-1.1,1-1.7
		l0.9-1.6c0,0,0-0.1,0.1-0.1c0.2,0.2,0.3,0.5,0.5,0.8c1,1.5,2,3,2.9,4.6c0.7,1,1.3,2.1,2,3.1C26.8,19.8,26.8,19.9,26.9,19.9z"/>
	<path id="Path_91" fill="#28A0F0" d="M23.6,24.1c-0.4,0.3-0.8,0.5-1.2,0.7c-0.8,0.4-1.5,0.9-2.3,1.3c0,0-0.1,0-0.1,0.1
		c0-0.1,0-0.1-0.1-0.2c-0.7-1.1-1.3-2.1-2-3.2c-0.6-0.9-1.1-1.7-1.7-2.6c-0.1-0.1-0.1-0.2,0-0.3c0.7-1.3,1.5-2.5,2.2-3.8
		c0,0,0-0.1,0.1-0.1c0.1,0,0.1,0.1,0.1,0.1c1.3,2.1,2.7,4.2,4,6.3c0.3,0.4,0.6,0.9,0.9,1.3C23.5,24,23.6,24,23.6,24.1L23.6,24.1z"/>
</g>
</svg>
