<?xml version="1.0" encoding="utf-8"?>
<!-- Generator: Adobe Illustrator 25.4.3, SVG Export Plug-In . SVG Version: 6.00 Build 0)  -->
<svg version="1.0" id="katman_2" xmlns="http://www.w3.org/2000/svg" xmlns:xlink="http://www.w3.org/1999/xlink" x="0px" y="0px"
	 viewBox="0 0 32 32" enable-background="new 0 0 32 32" xml:space="preserve">
<g>
	<rect x="6.1" y="5.5" fill="#FFFFFF" width="19.8" height="18"/>
	<path fill-rule="evenodd" clip-rule="evenodd" fill="#E84142" d="M32,16c0,8.8-7.2,16-16,16C7.2,32,0,24.8,0,16C0,7.2,7.2,0,16,0
		C24.8,0,32,7.2,32,16z M11.5,22.4H8.4c-0.7,0-1,0-1.2-0.1c-0.2-0.1-0.3-0.4-0.4-0.6c0-0.2,0.1-0.5,0.5-1.1L15,7
		c0.3-0.6,0.5-0.9,0.7-1c0.2-0.1,0.5-0.1,0.7,0c0.2,0.1,0.4,0.4,0.7,1l1.6,2.8l0,0c0.4,0.6,0.5,0.9,0.6,1.3c0.1,0.4,0.1,0.7,0,1.1
		c-0.1,0.3-0.3,0.6-0.6,1.3l-4,7.1l0,0c-0.4,0.6-0.5,0.9-0.8,1.2c-0.3,0.3-0.6,0.4-1,0.6C12.6,22.4,12.2,22.4,11.5,22.4z M19.3,22.4
		h4.4c0.7,0,1,0,1.2-0.1c0.2-0.1,0.3-0.4,0.4-0.6c0-0.2-0.1-0.5-0.5-1c0,0,0,0,0-0.1l-2.2-3.8l0,0c-0.3-0.5-0.5-0.8-0.7-0.9
		c-0.2-0.1-0.5-0.1-0.7,0c-0.2,0.1-0.4,0.4-0.7,0.9l-2.2,3.8l0,0c-0.3,0.6-0.5,0.8-0.5,1.1c0,0.3,0.1,0.5,0.4,0.6
		C18.3,22.4,18.7,22.4,19.3,22.4z"/>
</g>
</svg>
