<?xml version="1.0" encoding="utf-8"?>
<!-- Generator: Adobe Illustrator 25.4.3, SVG Export Plug-In . SVG Version: 6.00 Build 0)  -->
<svg version="1.0" id="katman_2" xmlns="http://www.w3.org/2000/svg" xmlns:xlink="http://www.w3.org/1999/xlink" x="0px" y="0px"
	 viewBox="0 0 32 32" enable-background="new 0 0 32 32" xml:space="preserve">
<circle id="Oval_00000012463653160937712140000017402434970370966156_" fill="#1F2025" cx="16" cy="16" r="16"/>
<g>
	<path id="binancedex" fill="#F3BA2F" d="M17.9,22.5v2.2L16,25.7l-1.9-1.1v-2.2l1.9,1.1L17.9,22.5z M7.7,14.9L9.5,16v3.7l3.1,1.9
		v2.2l-5-2.9C7.7,20.8,7.7,14.9,7.7,14.9z M24.2,14.9v6l-5.1,2.9v-2.2l3.1-1.9V16L24.2,14.9z M19.1,12l1.9,1.1l0,0v2.2l-3.1,1.9v3.8
		L16,22.1L14.1,21v-3.8l-3.2-2v-2.2l1.9-1.1l3.2,1.9L19.1,12z M10.9,16.8l1.9,1.1V20l-1.9-1.1V16.8z M21.1,16.8v2.2L19.2,20v-2.2
		L21.1,16.8z M9.5,10l2,1.2l-2,1.1v2.2l-1.9-1.1v-2.2L9.5,10z M22.4,10l2,1.2v2.2l-1.9,1.1v-2.2l-2-1.1L22.4,10z M16,10l1.9,1.2
		L16,12.3l-1.9-1.1L16,10z M16,6.3l5.1,2.9l-1.9,1.1L16,8.5l-3.2,2l-1.9-1.2L16,6.3z"/>
</g>
</svg>
