<?xml version="1.0" encoding="utf-8"?>
<!-- Generator: Adobe Illustrator 25.4.3, SVG Export Plug-In . SVG Version: 6.00 Build 0)  -->
<svg version="1.0" id="katman_2" xmlns="http://www.w3.org/2000/svg" xmlns:xlink="http://www.w3.org/1999/xlink" x="0px" y="0px"
	 viewBox="0 0 32 32" enable-background="new 0 0 32 32" xml:space="preserve">
<g id="Layer_2_00000154400230558107109240000014131617325213514938_">
	<g id="Layer_1-2">
		<circle fill="#13B5EC" cx="16" cy="16" r="16"/>
		<g>
			<path fill-rule="evenodd" clip-rule="evenodd" fill="#FFFFFF" d="M17.2,12.9l3.6-2.1V15L17.2,12.9z M20.8,21.9L16,24.7l-4.8-2.8
				V17l4.8,2.8l4.8-2.8L20.8,21.9z M11.2,10.8l3.6,2.1L11.2,15V10.8z M16.6,13.9l3.6,2.1l-3.6,2.1V13.9z M15.4,18.1L11.8,16l3.6-2.1
				L15.4,18.1z M20.2,9.8L16,12.2l-4.2-2.4L16,7.3L20.2,9.8z M10,9.4v13.1l6,3.4l6-3.4V9.4L16,6L10,9.4z"/>
		</g>
	</g>
</g>
</svg>
