<?xml version="1.0" encoding="utf-8"?>
<!-- Generator: Adobe Illustrator 25.4.3, SVG Export Plug-In . SVG Version: 6.00 Build 0)  -->
<svg version="1.0" id="katman_2" xmlns="http://www.w3.org/2000/svg" xmlns:xlink="http://www.w3.org/1999/xlink" x="0px" y="0px"
	 viewBox="0 0 32 32" enable-background="new 0 0 32 32" xml:space="preserve">
<g>
	<linearGradient id="SVGID_1_" gradientUnits="userSpaceOnUse" x1="0" y1="16" x2="32" y2="16">
		<stop  offset="0" style="stop-color:#00AEE9"/>
		<stop  offset="1" style="stop-color:#69FABD"/>
	</linearGradient>
	<path fill="url(#SVGID_1_)" d="M16,0c8.8,0,16,7.2,16,16s-7.2,16-16,16S0,24.8,0,16S7.2,0,16,0"/>
</g>
<path id="Shape" fill="#FFFFFF" d="M20.9,7.2c-2.1,0-3.7,1.7-3.7,3.8v4.2c-0.4,0-0.8,0-1.2,0s-0.8,0-1.2,0V11c0-2.1-1.7-3.8-3.8-3.7
	C9,7.3,7.4,9,7.3,11v10c0,2.1,1.7,3.8,3.8,3.7c2,0,3.6-1.7,3.7-3.7v-4.2c0.4,0,0.8,0,1.2,0s0.8,0,1.2,0V21c0,2.1,1.7,3.8,3.8,3.7
	c2,0,3.6-1.7,3.7-3.7V11C24.6,8.9,23,7.2,20.9,7.2z M11.1,8.8c1.2,0,2.2,1,2.2,2.2v4.4c-1.1,0.2-2.2,0.5-3.2,0.9
	c-0.4,0.2-0.9,0.4-1.2,0.7V11C8.9,9.8,9.9,8.8,11.1,8.8z M13.3,21c0,1.2-1,2.2-2.2,2.2s-2.2-1-2.2-2.2c0,0,0,0,0,0v-1
	c0-0.9,0.7-1.7,1.9-2.3c0.8-0.4,1.7-0.6,2.6-0.8V21L13.3,21z M20.9,23.3c-1.2,0-2.2-1-2.2-2.2v-4.4c1.1-0.2,2.2-0.5,3.2-0.9
	c0.4-0.2,0.9-0.4,1.2-0.7V21C23.1,22.3,22.1,23.3,20.9,23.3L20.9,23.3z M21.3,14.3c-0.8,0.4-1.7,0.6-2.6,0.8v-4c0-1.2,1-2.2,2.2-2.2
	c1.2,0,2.2,1,2.2,2.2c0,0,0,0,0,0v1C23.1,12.9,22.4,13.7,21.3,14.3z"/>
</svg>
