<?xml version="1.0" encoding="utf-8"?>
<!-- Generator: Adobe Illustrator 26.1.0, SVG Export Plug-In . SVG Version: 6.00 Build 0)  -->
<svg version="1.1" id="Layer_1" xmlns="http://www.w3.org/2000/svg" xmlns:xlink="http://www.w3.org/1999/xlink" x="0px" y="0px"
     viewBox="0 0 32 32" enable-background="new 0 0 32 32" xml:space="preserve">
<g id="logo-symbol" transform="matrix(0.097637, 0, 0, 0.097637, -8.149003, -28.872044)">
	<rect id="Rectangle_37" x="83.5" y="294" fill="none" width="327.7" height="327.7"/>
  <g id="symbol" transform="translate(-224.332 64.165)">
		<path id="Path_185" fill="#53CBC8" d="M502.3,256.1c-55.5,0-100.4,45-100.4,100.5l0,0c0,0.1,0,0.1,0,0.2v0.2
			c0.1,2.6,2.3,4.7,4.9,4.7h190.9c2.6,0,4.8-2,4.9-4.7l0-0.2c0-0.1,0-0.1,0-0.2l0,0C602.7,301.1,557.8,256.1,502.3,256.1z"/>
    <path id="Path_186" fill="#E1147B" d="M335.4,468.7c0,3.4-2.7,6.1-6.1,6.1c-3.4,0-6.1-2.7-6.1-6.1c0-3.4,2.7-6.1,6.1-6.1
			C332.6,462.6,335.4,465.3,335.4,468.7C335.4,468.7,335.4,468.7,335.4,468.7z"/>
    <path id="Path_187" fill="#E1147B" d="M591.1,434.9H386.2c-3.3,0-6,2.7-6,6c0,1,0.2,2,0.7,2.9c0,0.1,0.1,0.1,0.1,0.2
			c1.1,1.9,3.1,3.2,5.3,3.2H591c2.2,0,4.2-1.2,5.3-3.2l0.1-0.2c1.6-2.9,0.5-6.6-2.4-8.2C593.1,435.1,592.1,434.9,591.1,434.9z"/>
    <path id="Path_188" fill="#E1147B" d="M618.3,379.5H386.2c-3.3,0-6,2.7-6,6c0,0.1,0,0.2,0,0.3c0,0.1,0,0.1,0,0.2
			c0.2,3.2,2.8,5.7,6,5.7h232.1c3.2,0,5.8-2.5,6-5.7c0-0.1,0-0.1,0-0.2c0.2-3.3-2.4-6.2-5.7-6.4
			C618.6,379.5,618.4,379.5,618.3,379.5z"/>
    <path id="Path_189" fill="#E1147B" d="M530.9,518H426.3c-3.3,0-6,2.7-6,6c0,2.3,1.3,4.4,3.3,5.4l0.4,0.2c0.8,0.4,1.8,0.6,2.7,0.6
			h103.8c0.9,0,1.9-0.2,2.7-0.6l0.4-0.2c3-1.5,4.2-5.1,2.7-8.1C535.3,519.3,533.2,518,530.9,518z"/>
    <path id="Path_190" fill="#E1147B" d="M594.8,490.3H490.2c-3.3,0-6,2.7-6,6c0,2.3,1.3,4.4,3.3,5.4l0.4,0.2
			c0.8,0.4,1.8,0.6,2.7,0.6h103.8c0.9,0,1.8-0.2,2.7-0.6l0.4-0.2c3-1.5,4.2-5.1,2.7-8.1C599.2,491.6,597.1,490.3,594.8,490.3z"/>
    <path id="Path_191" fill="#E1147B" d="M452.2,472.9l-0.2-0.2c-2.3-2.4-2.1-6.2,0.3-8.5c1.1-1,2.6-1.6,4.1-1.6h169.8
			c3.3,0,6,2.7,6,6c0,1.5-0.6,3-1.6,4.1l-0.2,0.2c-1.1,1.2-2.7,1.9-4.4,1.9H456.6C455,474.8,453.4,474.1,452.2,472.9z"/>
    <path id="Path_192" fill="#E1147B" d="M351.1,462.6h81.1c3.3,0,6,2.7,6,6c0,2.3-1.3,4.4-3.3,5.4l-0.4,0.2
			c-0.8,0.4-1.8,0.6-2.7,0.6h-80.3c-0.9,0-1.9-0.2-2.7-0.6l-0.4-0.2c-3-1.5-4.2-5.1-2.7-8.1C346.7,463.9,348.8,462.6,351.1,462.6z"
    />
    <path id="Path_193" fill="#E1147B" d="M370.5,385.6c0,3.4-2.7,6.1-6.1,6.1c-3.4,0-6.1-2.7-6.1-6.1c0-3.4,2.7-6.1,6.1-6.1
			C367.8,379.5,370.5,382.2,370.5,385.6C370.5,385.6,370.5,385.6,370.5,385.6z"/>
    <path id="Path_194" fill="#E1147B" d="M514.6,414.9c0-0.1,0-0.1,0.1-0.2c0.9-3.2-1-6.5-4.3-7.4c-0.5-0.1-1-0.2-1.6-0.2H339
			c-3.3,0-6,2.7-6,6c0,0.5,0.1,1.1,0.2,1.6c0,0.1,0,0.1,0.1,0.2c0.7,2.6,3.1,4.5,5.8,4.5h169.7C511.5,419.4,513.9,417.6,514.6,414.9
			"/>
    <path id="Path_195" fill="#E1147B" d="M323.3,413.3c0,3.4-2.7,6.1-6.1,6.1c-3.4,0-6.1-2.7-6.1-6.1c0-3.4,2.7-6.1,6.1-6.1
			C320.6,407.2,323.3,409.9,323.3,413.3z"/>
    <path id="Path_196" fill="#E1147B" d="M370.5,441c0,3.4-2.7,6.1-6.1,6.1c-3.4,0-6.1-2.7-6.1-6.1c0-3.4,2.7-6.1,6.1-6.1
			C367.8,434.9,370.5,437.6,370.5,441z"/>
    <path id="Path_197" fill="#E1147B" d="M474.5,496.4c0,3.4-2.7,6.1-6.1,6.1c-3.4,0-6.1-2.7-6.1-6.1c0-3.4,2.7-6.1,6.1-6.1
			C471.8,490.3,474.5,493,474.5,496.4C474.5,496.4,474.5,496.4,474.5,496.4z"/>
    <path id="Path_198" fill="#E1147B" d="M410.6,524.1c0,3.4-2.7,6.1-6.1,6.1c-3.4,0-6.1-2.7-6.1-6.1c0-3.4,2.7-6.1,6.1-6.1
			C407.9,518,410.6,520.8,410.6,524.1L410.6,524.1z"/>
	</g>
</g>
</svg>