<?xml version="1.0" encoding="utf-8"?>
<!-- Generator: Adobe Illustrator 25.4.3, SVG Export Plug-In . SVG Version: 6.00 Build 0)  -->
<svg version="1.0" id="katman_2" xmlns="http://www.w3.org/2000/svg" xmlns:xlink="http://www.w3.org/1999/xlink" x="0px" y="0px"
	 viewBox="0 0 32 32" enable-background="new 0 0 32 32" xml:space="preserve">
<circle id="Oval_00000012463653160937712140000017402434970370966156_" fill="#0A0E2D" enable-background="new    " cx="16" cy="16" r="16"/>
<g id="logo-symbol" transform="translate(-442 -265)">
	<rect id="Rectangle_38" x="446" y="270" fill="none" width="24.1" height="24.1"/>
	<g id="symbol" transform="translate(231.196 -160.618)">
		<path id="Path_207" fill="#F2B705" d="M226.6,431.1c-4.8,0-8.6,3.9-8.6,8.6c0,0,0,0,0,0c0,0.5,0.1,1.1,0.2,1.6l1.1-0.8
			c2-1.3,5.1-1.3,7.1,0l1.2,0.8l0.6,0.4c1.8,1.2,4.6,1.2,6.4,0l0.5-0.4c1-4.7-2.1-9.3-6.7-10.2C227.7,431.2,227.2,431.1,226.6,431.1
			L226.6,431.1z"/>
		<path id="Path_208" fill="#53CBC8" d="M231.4,445c-1.3,0-2.5-0.4-3.5-1l-1.8-1.2c-0.9-0.6-2-0.9-3.3-0.9c-1.2,0-2.4,0.3-3.3,0.9
			l-1.2,0.8c-0.2,0.2-0.5,0.1-0.7-0.1c-0.2-0.2-0.1-0.5,0.1-0.7c0,0,0,0,0,0l1.2-0.8c1-0.7,2.4-1.1,3.8-1.1c1.4,0,2.8,0.4,3.8,1.1
			l1.8,1.2c1.8,1.1,4,1.1,5.8,0l0.7-0.5c0.2-0.2,0.5-0.1,0.7,0.1c0.2,0.2,0.1,0.5-0.1,0.7c0,0,0,0,0,0l-0.7,0.5
			C234,444.6,232.7,445,231.4,445z"/>
		<path id="Path_209" fill="#53CBC8" d="M222.9,448.6v-4.9c0-0.1,0-0.2,0-0.3c0-0.3,0.3-0.5,0.5-0.5c0.3,0,0.5,0.2,0.5,0.5
			c0,0.2,0,0.3,0,0.5v9.7c0,0.4-0.3,0.6-0.6,0.6s-0.5-0.3-0.5-0.6v-3.2L222.9,448.6z"/>
		<path id="Path_210" fill="#53CBC8" d="M221.8,446.1v2.4c0,0.4-0.2,0.7-0.5,0.7c-0.3,0-0.6-0.3-0.6-0.7v-4.9c0-0.4,0.2-0.7,0.6-0.7
			c0.3,0,0.5,0.3,0.5,0.7C221.8,444.5,221.8,445.3,221.8,446.1z"/>
		<path id="Path_211" fill="#53CBC8" d="M225,446.1v-1.7c0-0.4,0.2-0.7,0.5-0.7c0.3,0,0.6,0.3,0.6,0.6c0,1.2,0,2.3,0,3.5
			c0,0.4-0.2,0.6-0.6,0.6c-0.3,0-0.5-0.2-0.5-0.7L225,446.1L225,446.1z"/>
		<path id="Path_212" fill="#53CBC8" d="M218.6,446.5v-1.7c0-0.4,0.2-0.7,0.5-0.7c0.3,0,0.6,0.3,0.6,0.6c0,1.2,0,2.3,0,3.5
			c0,0.4-0.2,0.6-0.6,0.6c-0.3,0-0.5-0.2-0.5-0.7L218.6,446.5L218.6,446.5z"/>
		<path id="Path_213" fill="#53CBC8" d="M227.6,445L227.6,445c0.3,0,0.5,0.2,0.5,0.5v0.9c0,0.3-0.2,0.5-0.5,0.5h0
			c-0.3,0-0.5-0.2-0.5-0.5v-0.9C227.1,445.3,227.3,445,227.6,445z"/>
		<path id="Path_214" fill="#53CBC8" d="M229.8,445.8L229.8,445.8c0.3,0,0.5,0.2,0.5,0.5v5.2c0,0.3-0.2,0.5-0.5,0.5c0,0,0,0,0,0h0
			c-0.3,0-0.5-0.2-0.5-0.5c0,0,0,0,0,0v-5.2C229.2,446.1,229.5,445.8,229.8,445.8z"/>
		<path id="Path_215" fill="#53CBC8" d="M231.9,446L231.9,446c0.3,0,0.5,0.2,0.5,0.5v4.4c0,0.3-0.2,0.5-0.5,0.5h0
			c-0.3,0-0.5-0.2-0.5-0.5c0,0,0,0,0,0v-4.4C231.3,446.3,231.6,446,231.9,446C231.9,446,231.9,446,231.9,446z"/>
		<path id="Path_216" fill="#53CBC8" d="M234,445.5L234,445.5c0.3,0,0.5,0.2,0.5,0.5l0,0v1.9c0,0.3-0.2,0.5-0.5,0.5h0
			c-0.3,0-0.5-0.2-0.5-0.5c0,0,0,0,0,0v-1.9C233.5,445.8,233.7,445.5,234,445.5C234,445.5,234,445.5,234,445.5z"/>
	</g>
</g>
</svg>
