<?xml version="1.0" encoding="utf-8"?>
<!-- Generator: Adobe Illustrator 25.4.3, SVG Export Plug-In . SVG Version: 6.00 Build 0)  -->
<svg version="1.0" id="katman_2" xmlns="http://www.w3.org/2000/svg" xmlns:xlink="http://www.w3.org/1999/xlink" x="0px" y="0px"
	 viewBox="0 0 32 32" enable-background="new 0 0 32 32" xml:space="preserve">
<g>
	<path fill="#8247E5" d="M16,0c8.8,0,16,7.2,16,16s-7.2,16-16,16S0,24.8,0,16S7.2,0,16,0"/>
	<path fill="#FFFFFF" d="M21.3,12.6c-0.4-0.2-0.9-0.2-1.3,0l-3,1.7l-2,1.1l-3,1.7c-0.4,0.2-0.9,0.2-1.3,0l-2.4-1.3
		c-0.4-0.2-0.7-0.6-0.7-1.1v-2.6c0-0.4,0.2-0.9,0.7-1.1l2.3-1.3c0.4-0.2,0.9-0.2,1.3,0l2.3,1.3c0.4,0.2,0.7,0.6,0.7,1.1v1.7l2-1.2
		v-1.7c0-0.4-0.2-0.9-0.7-1.1L12,7.4c-0.4-0.2-0.9-0.2-1.3,0L6.3,9.8c-0.4,0.2-0.7,0.6-0.7,1.1v4.9c0,0.4,0.2,0.9,0.7,1.1l4.4,2.5
		c0.4,0.2,0.9,0.2,1.3,0l3-1.7l2-1.2l3-1.7c0.4-0.2,0.9-0.2,1.3,0l2.3,1.3c0.4,0.2,0.7,0.6,0.7,1.1v2.6c0,0.4-0.2,0.9-0.7,1.1
		l-2.3,1.3c-0.4,0.2-0.9,0.2-1.3,0L17.7,21c-0.4-0.2-0.7-0.6-0.7-1.1v-1.7l-2,1.2v1.7c0,0.4,0.2,0.9,0.7,1.1l4.4,2.5
		c0.4,0.2,0.9,0.2,1.3,0l4.4-2.5c0.4-0.2,0.7-0.6,0.7-1.1v-4.9c0-0.4-0.2-0.9-0.7-1.1L21.3,12.6z"/>
</g>
</svg>
