<?xml version="1.0" encoding="utf-8"?>
<!-- Generator: Adobe Illustrator 25.4.3, SVG Export Plug-In . SVG Version: 6.00 Build 0)  -->
<svg version="1.0" id="katman_2" xmlns="http://www.w3.org/2000/svg" xmlns:xlink="http://www.w3.org/1999/xlink" x="0px" y="0px"
	 viewBox="0 0 32 32" enable-background="new 0 0 32 32" xml:space="preserve">
<g>
	<circle fill="#1B1B1B" cx="16" cy="16" r="16"/>
	<path fill-rule="evenodd" clip-rule="evenodd" fill="#FFFFFF" d="M20.7,11.3c0.2,0.2,0.6,0.2,0.7-0.1c0.2-0.2,0.1-0.5-0.1-0.7
		c-1.8-1.7-3.4-2.6-6-2.4c-2.8,0.1-5.3,1.6-5.1,4.7c0.1,2.7,2.8,3.7,5.1,4.6c1.8,0.7,3.4,1.3,3.4,2.5c0.1,1.4-1.4,2.3-2.6,2.3
		c-2.4,0.1-3.7-0.7-5.3-2.2c-0.2-0.2-0.5-0.2-0.7,0c-0.2,0.2-0.2,0.5,0,0.7c1.7,1.7,3.5,2.6,6.1,2.5c2.6-0.2,5.8-1.7,5.6-4.7
		c-0.1-2.7-2.7-3.7-5-4.6c-1.9-0.7-3.7-1.4-3.7-3c-0.1-1.1,1.3-1.9,2.2-2C17.8,9,19.2,9.8,20.7,11.3z M21,18.7
		c0,1.2-0.7,2.2-1.6,2.8l-0.1,0c0.4-0.5,0.4-1.1,0.4-1.7c0-1.8-1.9-2.4-4-3.2c-2.3-0.8-4.6-1.7-4.6-4c0-1.1,0.5-2.3,1.4-2.8l0,0.1
		c-0.2,0.5-0.4,1.1-0.4,1.7c0,2,2.1,2.7,4.3,3.6C18.8,15.8,21,16.6,21,18.7z"/>
	<g>
		<path fill="#FFFFFF" d="M15.9,29C8.6,29,2.7,23.1,2.7,15.9S8.6,2.7,15.9,2.7S29,8.6,29,15.9S23.1,29,15.9,29z M15.9,3.3
			c-7,0-12.6,5.7-12.6,12.6c0,7,5.7,12.6,12.6,12.6c7,0,12.6-5.7,12.6-12.6C28.5,8.9,22.8,3.3,15.9,3.3z"/>
	</g>
</g>
</svg>
