<?xml version="1.0" encoding="utf-8"?>
<!-- Generator: Adobe Illustrator 25.4.3, SVG Export Plug-In . SVG Version: 6.00 Build 0)  -->
<svg version="1.0" id="katman_2" xmlns="http://www.w3.org/2000/svg" xmlns:xlink="http://www.w3.org/1999/xlink" x="0px" y="0px"
	 viewBox="0 0 32 32" enable-background="new 0 0 32 32" xml:space="preserve">
<g>
	<path fill="#2845AD" d="M10.6,2.1c1.7-0.7,3.5-0.9,5.3-1c2.7,0,5.5,0.4,8,1.5c1.9,0.9,3.6,2.4,4.8,4.1c-0.4-0.3-0.6-0.8-1-1.1
		c-0.7-0.6-1.2-1.4-2.1-1.7c-0.9-0.3-1.8-0.4-2.7-0.3c-2.2,0.2-4.4,0.8-6.6,1.5C14.1,6,11.7,7.1,10,9c-0.3,0.3-0.5,0.8-0.9,1.1
		c-0.8-0.5-1.6-1.2-2-2C7,8,7,7.9,7,7.9c1.5-0.7,2.9-1.5,4-2.7c0.6-0.6,1.1-1.5,0.8-2.4C11.6,2.3,11,2.3,10.6,2.1 M16.8,19.6
		c2.2,0.8,4.4,1.5,6.6,2.2c2,0.5,3.9,1,6,1c-0.2,0.5-0.5,1-0.7,1.5c-1.8,0.6-3.5,1.4-5.1,2.4c-1,0.6-2,1.4-2.6,2.4
		c-0.2,0.4-0.2,0.9-0.1,1.3c0,0-0.1,0.1-0.1,0.1c-0.7,0.2-1.4,0.6-2.2,0.3c-1.2-0.4-2.2-1.3-3.1-2.2c-1-1.2-1.9-2.7-2-4.3
		c0-1.5,0.9-2.8,2-3.8C16,20.2,16.4,19.9,16.8,19.6"/>
	<path fill="#5494F8" d="M9.3,2.2c0.4-0.1,0.9,0,1.4-0.1c0.4,0.2,1,0.3,1.2,0.8c0.3,0.9-0.2,1.8-0.8,2.4c-1.1,1.2-2.5,2-4,2.7
		C7,7.9,7,8,7.1,8.1C6.9,8,6.7,8,6.5,8.1C5.4,8.6,4.3,9,3.1,9.3C2.6,9.4,2.2,9.5,1.7,9.4c0-0.3,0.2-0.5,0.3-0.7
		c1.1-2,2.7-3.8,4.5-5.2C7.4,2.9,8.2,2.3,9.3,2.2 M16.4,5.1c2.1-0.8,4.3-1.4,6.6-1.5c0.9,0,1.8,0,2.7,0.3c0.9,0.3,1.5,1.1,2.1,1.7
		c0.4,0.3,0.6,0.8,1,1.1c0.2,0.1,0.3,0.4,0.4,0.5c3,4.2,3.7,10,1.9,14.8c-0.2,0.6-1,0.7-1.5,0.7c-2,0-4-0.5-6-1
		c-2.2-0.6-4.4-1.4-6.6-2.2c-2.1-0.8-4.1-1.8-5.8-3.2C10,15.4,9,14.3,8.7,12.8c-0.2-0.7-0.1-1.5,0.2-2.2c0.1-0.2,0.2-0.3,0.2-0.5
		C9.4,9.8,9.6,9.3,10,9C11.7,7.1,14.1,6,16.4,5.1 M1,10.9L1,10.9c0.7,0.8,1.4,1.6,2,2.4c1.4,1.6,2.5,3.3,3.6,5.1
		c1.5,2.4,2.9,5,3.2,7.8c0,1.5,0,3.1-0.2,4.6c-0.4,0.1-0.9-0.2-1.3-0.3c-3-1.6-5.4-4.2-6.8-7.2C-0.3,19.5-0.5,14.9,1,10.9
		 M28.7,24.3c0.4-0.1,0.8-0.3,1.2-0.2c0.1,0.3-0.1,0.5-0.2,0.8c-1.3,2.1-3.1,3.9-5.2,5.2c-0.7,0.4-1.5,0.9-2.3,0.9
		c-0.4,0-0.8-0.1-1.1-0.4c-0.1,0-0.2,0-0.2,0c0,0,0.1-0.1,0.1-0.1c-0.1-0.4-0.1-0.9,0.1-1.3c0.6-1,1.6-1.8,2.6-2.4
		C25.2,25.6,26.9,24.9,28.7,24.3"/>
</g>
</svg>
