<svg xmlns="http://www.w3.org/2000/svg" width="28.4" height="21.647" viewBox="0 0 28.4 21.647">
  <path id="discord" d="M24.042,2.206A23.42,23.42,0,0,0,18.261.413a.088.088,0,0,0-.093.044,16.314,16.314,0,0,0-.72,1.479,21.621,21.621,0,0,0-6.493,0A14.962,14.962,0,0,0,10.225.457a.091.091,0,0,0-.093-.044A23.355,23.355,0,0,0,4.351,2.206a.083.083,0,0,0-.038.033A23.969,23.969,0,0,0,.117,18.4a.1.1,0,0,0,.037.066,23.551,23.551,0,0,0,7.092,3.585.092.092,0,0,0,.1-.033A16.832,16.832,0,0,0,8.8,19.662a.09.09,0,0,0-.049-.125,15.509,15.509,0,0,1-2.215-1.056.091.091,0,0,1-.009-.151c.149-.112.3-.228.44-.345a.088.088,0,0,1,.092-.012,16.8,16.8,0,0,0,14.273,0,.087.087,0,0,1,.093.011c.142.117.291.234.441.346a.091.091,0,0,1-.008.151,14.553,14.553,0,0,1-2.216,1.055.091.091,0,0,0-.048.126,18.9,18.9,0,0,0,1.45,2.359.09.09,0,0,0,.1.034,23.473,23.473,0,0,0,7.1-3.585.091.091,0,0,0,.037-.065,23.812,23.812,0,0,0-4.2-16.165A.072.072,0,0,0,24.042,2.206ZM9.49,15.177a2.73,2.73,0,0,1-2.552-2.862A2.715,2.715,0,0,1,9.49,9.452a2.7,2.7,0,0,1,2.552,2.862A2.715,2.715,0,0,1,9.49,15.177Zm9.437,0a2.73,2.73,0,0,1-2.552-2.862,2.715,2.715,0,0,1,2.552-2.862,2.7,2.7,0,0,1,2.552,2.862A2.707,2.707,0,0,1,18.927,15.177Z" transform="translate(0 -0.412)" fill="#b1c1c9"/>
</svg>
