<svg xmlns="http://www.w3.org/2000/svg" width="23.16" height="24" viewBox="0 0 23.16 24">
  <path id="email_SVG" data-name="email SVG" d="M11.58,18a5.9,5.9,0,0,1-5.79-6,5.9,5.9,0,0,1,5.79-6,5.9,5.9,0,0,1,5.79,6,5.9,5.9,0,0,1-5.79,6Zm0-9a3,3,0,1,0,2.895,3A2.952,2.952,0,0,0,11.58,9Zm0,15A11.809,11.809,0,0,1,0,12,11.809,11.809,0,0,1,11.58,0,11.809,11.809,0,0,1,23.16,12a12.477,12.477,0,0,1-.236,2.418,4.363,4.363,0,0,1-5.146,3.518A4.308,4.308,0,0,1,15.032,16a4.6,4.6,0,0,1-.618-3.384,1.447,1.447,0,0,1,1.712-1.163,1.5,1.5,0,0,1,1.12,1.774,1.534,1.534,0,0,0,.207,1.128,1.443,1.443,0,0,0,.915.648,1.462,1.462,0,0,0,1.714-1.163A9.317,9.317,0,0,0,20.265,12,8.856,8.856,0,0,0,11.58,3a8.856,8.856,0,0,0-8.685,9,8.856,8.856,0,0,0,8.685,9,8.4,8.4,0,0,0,2.988-.546,1.433,1.433,0,0,1,1.856.9,1.514,1.514,0,0,1-.864,1.923A11.189,11.189,0,0,1,11.58,24Z"/>
</svg>
