<svg xmlns="http://www.w3.org/2000/svg" width="24" height="24" viewBox="0 0 24 24">
  <path id="instagram" d="M12,0C8.74,0,8.333.015,7.053.072A8.849,8.849,0,0,0,4.14.63,5.876,5.876,0,0,0,2.014,2.014,5.855,5.855,0,0,0,.63,4.14,8.823,8.823,0,0,0,.072,7.053C.012,8.333,0,8.74,0,12s.015,3.667.072,4.947A8.854,8.854,0,0,0,.63,19.86a5.885,5.885,0,0,0,1.384,2.126A5.868,5.868,0,0,0,4.14,23.37a8.86,8.86,0,0,0,2.913.558C8.333,23.988,8.74,24,12,24s3.667-.015,4.947-.072a8.88,8.88,0,0,0,2.913-.558,6.133,6.133,0,0,0,3.51-3.51,8.854,8.854,0,0,0,.558-2.913C23.988,15.667,24,15.26,24,12s-.015-3.667-.072-4.947A8.874,8.874,0,0,0,23.37,4.14a5.89,5.89,0,0,0-1.384-2.126A5.847,5.847,0,0,0,19.86.63,8.828,8.828,0,0,0,16.947.072C15.667.012,15.26,0,12,0Zm0,2.16c3.2,0,3.585.016,4.85.071a6.611,6.611,0,0,1,2.227.415,3.949,3.949,0,0,1,2.278,2.277,6.625,6.625,0,0,1,.413,2.227c.057,1.266.07,1.646.07,4.85s-.015,3.585-.074,4.85a6.753,6.753,0,0,1-.421,2.227,3.81,3.81,0,0,1-.9,1.382,3.744,3.744,0,0,1-1.38.9,6.674,6.674,0,0,1-2.235.413c-1.274.057-1.649.07-4.859.07s-3.586-.015-4.859-.074a6.8,6.8,0,0,1-2.236-.421,3.716,3.716,0,0,1-1.379-.9,3.644,3.644,0,0,1-.9-1.38,6.81,6.81,0,0,1-.42-2.235c-.045-1.26-.061-1.649-.061-4.844s.016-3.586.061-4.861A6.8,6.8,0,0,1,2.6,4.89a3.557,3.557,0,0,1,.9-1.381,3.549,3.549,0,0,1,1.379-.9A6.642,6.642,0,0,1,7.1,2.19c1.275-.045,1.65-.06,4.859-.06Zm0,3.678A6.162,6.162,0,1,0,18.162,12,6.162,6.162,0,0,0,12,5.838ZM12,16a4,4,0,1,1,4-4A4,4,0,0,1,12,16ZM19.846,5.6a1.44,1.44,0,1,1-1.44-1.439A1.441,1.441,0,0,1,19.846,5.6Z" fill="#b1c1c9"/>
</svg>
