<svg xmlns="http://www.w3.org/2000/svg" width="24" height="24" viewBox="0 0 24 24">
  <path id="linkedin_SVG" data-name="linkedin SVG" d="M20.447,20.452H16.893V14.883c0-1.328-.027-3.037-1.852-3.037-1.853,0-2.136,1.445-2.136,2.939v5.667H9.351V9h3.414v1.561h.046a3.745,3.745,0,0,1,3.37-1.85c3.6,0,4.267,2.37,4.267,5.455v6.286ZM5.337,7.433A2.064,2.064,0,1,1,7.4,5.368,2.062,2.062,0,0,1,5.337,7.433ZM7.119,20.452H3.555V9H7.119ZM22.225,0H1.771A1.75,1.75,0,0,0,0,1.729V22.271A1.749,1.749,0,0,0,1.771,24H22.222A1.756,1.756,0,0,0,24,22.271V1.729A1.756,1.756,0,0,0,22.222,0Z"/>
</svg>
