<svg xmlns="http://www.w3.org/2000/svg" width="24.75" height="20.116" viewBox="0 0 24.75 20.116">
  <path id="twitter" d="M24.7,4.642a10.313,10.313,0,0,1-2.913.8,5.113,5.113,0,0,0,2.231-2.808,10.48,10.48,0,0,1-3.225,1.221,5.072,5.072,0,0,0-8.777,3.463,5.192,5.192,0,0,0,.131,1.159A14.37,14.37,0,0,1,1.691,3.19,4.972,4.972,0,0,0,1,5.742,5.074,5.074,0,0,0,3.261,9.966a5.057,5.057,0,0,1-2.3-.635v.063a5.077,5.077,0,0,0,4.069,4.978,5.12,5.12,0,0,1-2.281.088A5.091,5.091,0,0,0,7.5,17.982a10.176,10.176,0,0,1-6.292,2.171A10.77,10.77,0,0,1,0,20.084a14.432,14.432,0,0,0,7.793,2.278A14.331,14.331,0,0,0,22.229,7.939c0-.216,0-.433-.015-.65A10.246,10.246,0,0,0,24.75,4.662Z" transform="translate(0 -2.246)" fill="#b1c1c9"/>
</svg>
