<svg id="Group_11628" data-name="Group 11628" xmlns="http://www.w3.org/2000/svg" xmlns:xlink="http://www.w3.org/1999/xlink" width="82.112" height="82.112" viewBox="0 0 82.112 82.112">
  <defs>
    <linearGradient id="linear-gradient" x1="0.179" y1="0.851" x2="0.782" y2="0.062" gradientUnits="objectBoundingBox">
      <stop offset="0" stop-color="#53918d"/>
      <stop offset="0.463"/>
      <stop offset="0.97" stop-color="#411e9e"/>
      <stop offset="1" stop-color="#4520a7"/>
    </linearGradient>
    <linearGradient id="linear-gradient-2" x1="0.885" y1="0.326" x2="-0.112" y2="0.5" gradientUnits="objectBoundingBox">
      <stop offset="0" stop-color="#fff"/>
      <stop offset="1" stop-color="#d3d3d3"/>
    </linearGradient>
    <filter id="Union_172" x="7.728" y="7.048" width="66.655" height="68.015" filterUnits="userSpaceOnUse">
      <feOffset dy="2" input="SourceAlpha"/>
      <feGaussianBlur stdDeviation="3" result="blur"/>
      <feFlood flood-color="#fff" result="color"/>
      <feComposite operator="out" in="SourceGraphic" in2="blur"/>
      <feComposite operator="in" in="color"/>
      <feComposite operator="in" in2="SourceGraphic"/>
    </filter>
  </defs>
  <g id="Ellipse_340" data-name="Ellipse 340" transform="translate(0 0)" stroke="rgba(83,145,141,0.14)" stroke-width="3" fill="url(#linear-gradient)">
    <ellipse cx="41.056" cy="41.056" rx="41.056" ry="41.056" stroke="none"/>
    <ellipse cx="41.056" cy="41.056" rx="39.556" ry="39.556" fill="none"/>
  </g>
  <g data-type="innerShadowGroup">
    <g id="Union_172-2" data-name="Union 172" transform="translate(7.728 7.048)" fill="url(#linear-gradient-2)">
      <path d="M21.737,66A34.282,34.282,0,0,1,4.365,51.987,33.638,33.638,0,0,1,.011,41.418.432.432,0,0,1,.1,41.05a.437.437,0,0,1,.34-.163H4.3a.437.437,0,0,1,.424.329,29.168,29.168,0,0,0,3.9,8.839,29.555,29.555,0,0,0,49.424,0,29.158,29.158,0,0,0,3.9-8.839.436.436,0,0,1,.424-.329h3.858a.437.437,0,0,1,.427.53,33.725,33.725,0,0,1-4.354,10.57A34.207,34.207,0,0,1,21.737,66Zm9.872-8.334a.489.489,0,0,1-.49-.488v-4.55a13.06,13.06,0,0,1-7.5-4.054,12.35,12.35,0,0,1-2.359-3.747,11.958,11.958,0,0,1-.859-4.462.488.488,0,0,1,.49-.487h3.556a.488.488,0,0,1,.49.487,8.393,8.393,0,1,0,8.387-8.051.489.489,0,0,1-.491-.487V28.4a.489.489,0,0,1,.491-.487,12.707,12.707,0,0,1,12.92,12.408.249.249,0,0,1,0,.038A11.953,11.953,0,0,1,45.4,44.8a12.327,12.327,0,0,1-2.339,3.736,13.059,13.059,0,0,1-7.442,4.07v4.564a.489.489,0,0,1-.49.488Zm-11.2-30.222a11.962,11.962,0,0,1,.859-4.464,12.376,12.376,0,0,1,2.359-3.747,13.067,13.067,0,0,1,7.5-4.054V10.84a.488.488,0,0,1,.49-.487h3.517a.488.488,0,0,1,.49.487v4.349a13.062,13.062,0,0,1,7.442,4.071A12.317,12.317,0,0,1,45.4,23a11.963,11.963,0,0,1,.852,4.445.489.489,0,0,1-.49.488H42.2a.489.489,0,0,1-.49-.488,8.393,8.393,0,0,0-16.772,0,8.235,8.235,0,0,0,8.387,8.05.489.489,0,0,1,.49.488V39.4a.489.489,0,0,1-.49.488A12.708,12.708,0,0,1,20.405,27.441ZM.436,27.127a.434.434,0,0,1-.34-.163A.43.43,0,0,1,.011,26.6a33.651,33.651,0,0,1,4.354-10.57,34.191,34.191,0,0,1,57.926,0A33.745,33.745,0,0,1,66.645,26.6a.437.437,0,0,1-.427.531H62.36a.436.436,0,0,1-.424-.328,29.137,29.137,0,0,0-3.9-8.839,29.553,29.553,0,0,0-49.424,0,29.152,29.152,0,0,0-3.9,8.83.438.438,0,0,1-.426.338Z" stroke="none"/>
      <path d="M 33.32810211181641 66.01519775390625 C 37.07293701171875 66.01519775390625 40.74391555786133 65.37586975097656 44.23918151855469 64.11491394042969 C 47.61547088623047 62.89719390869141 50.74912643432617 61.12979507446289 53.55279159545898 58.86209487915039 C 56.33333587646484 56.61215209960938 58.70340347290039 53.94130706787109 60.59688186645508 50.92417144775391 C 62.17438125610352 48.40911102294922 63.38360595703125 45.71335220336914 64.20380401611328 42.88712692260742 L 63.55079650878906 42.88712692260742 C 62.68525314331055 45.80999755859375 61.39656829833984 48.58537292480469 59.71132659912109 51.15296173095703 C 57.8345947265625 54.01180648803711 55.5160026550293 56.53689575195312 52.82040405273438 58.65771865844727 C 50.10053634643555 60.79888534545898 47.07204818725586 62.46676254272461 43.8187255859375 63.61511611938477 C 40.45246124267578 64.80274200439453 36.92289352416992 65.40491485595703 33.32810211181641 65.40491485595703 C 29.73307037353516 65.40491485595703 26.20293807983398 64.80276489257812 22.83508110046387 63.61494064331055 C 19.58392715454102 62.46699523925781 16.55562591552734 60.79924011230469 13.83407020568848 58.65784072875977 C 11.13841533660889 56.53618240356445 8.820237159729004 54.01117324829102 6.94371509552002 51.15261840820312 C 5.257683753967285 48.5831298828125 3.968642950057983 45.80649566650391 3.104310512542725 42.88712692260742 L 2.451441526412964 42.88712692260742 C 3.270623445510864 45.71288299560547 4.480173110961914 48.40879821777344 6.059281826019287 50.92409515380859 C 7.952648639678955 53.94247436523438 10.32223701477051 56.61312866210938 13.10215950012207 58.86183929443359 C 15.90664863586426 61.13021850585938 19.03998184204102 62.89760589599609 22.41510391235352 64.11491394042969 C 25.9112377166748 65.37584686279297 29.58289337158203 66.01519775390625 33.32810211181641 66.01519775390625 M 33.61561584472656 55.66276168823242 L 33.61561584472656 50.92679595947266 L 35.27487182617188 50.63990783691406 C 37.70565032958984 50.2196159362793 39.9435920715332 48.99697113037109 41.57625961303711 47.19741821289062 C 42.42371368408203 46.2630500793457 43.08382797241211 45.20950698852539 43.53888320922852 44.06448364257812 C 43.99499893188477 42.91962432861328 44.23344802856445 41.7154541015625 44.24820709228516 40.48212432861328 L 44.24749374389648 40.4774284362793 L 44.24703598022461 40.32957458496094 C 44.23088836669922 35.07663345336914 40.13077163696289 30.71957015991211 34.8365592956543 30.01473808288574 L 34.8365592956543 30.41598510742188 C 39.8503532409668 31.12534141540527 43.7121467590332 35.31490707397461 43.7121467590332 40.3611946105957 C 43.7121467590332 45.90208435058594 39.05345916748047 50.40992736816406 33.3271484375 50.40992736816406 C 28.13112831115723 50.40992736816406 23.81396293640137 46.6995735168457 23.05765151977539 41.87376022338867 L 22.51923561096191 41.87376022338867 C 22.63394737243652 42.62772369384766 22.83501052856445 43.36576843261719 23.12096977233887 44.08034896850586 C 23.5811710357666 45.23026275634766 24.24715995788574 46.28719329833984 25.10050392150879 47.22189331054688 C 26.7472038269043 49.02582931518555 29.00143814086914 50.24396133422852 31.44794845581055 50.65190505981445 L 33.11900329589844 50.93054962158203 L 33.11900329589844 55.66276168823242 L 33.61561584472656 55.66276168823242 M 31.81678199768066 37.78818130493164 L 31.81678199768066 37.38481140136719 C 26.8034496307373 36.67510986328125 22.94132804870605 32.48616790771484 22.94022560119629 27.44000625610352 C 22.94143676757812 21.89778327941895 27.60098266601562 17.38886260986328 33.3271484375 17.38886260986328 C 38.52256011962891 17.38886260986328 42.83916091918945 21.10107421875 43.59490585327148 25.92907333374023 L 44.13496398925781 25.92907333374023 C 44.02091217041016 25.18015480041504 43.82155990600586 24.44632911682129 43.53821563720703 23.73476219177246 C 43.08341598510742 22.59019470214844 42.42345809936523 21.53677368164062 41.57631683349609 20.60334014892578 C 39.94379425048828 18.80353927612305 37.70572662353516 17.58050537109375 35.27439117431641 17.15951728820801 L 33.61561584472656 16.87229537963867 L 33.61561584472656 12.35219478607178 L 33.11900329589844 12.35219478607178 L 33.11900329589844 16.86933898925781 L 31.44832611083984 17.14823913574219 C 29.00142669677734 17.55672836303711 26.74699211120605 18.77487373352051 25.10075950622559 20.57780647277832 C 24.24819374084473 21.51212882995605 23.58197021484375 22.56957244873047 23.12103652954102 23.71968460083008 C 22.64616012573242 24.90658378601074 22.40537071228027 26.15867233276367 22.40537071228027 27.44059562683105 C 22.40683364868164 32.71105575561523 26.50792121887207 37.08246231079102 31.81678199768066 37.78818130493164 M 3.104082822799683 25.12801170349121 C 3.969192028045654 22.2064037322998 5.258061408996582 19.43086814880371 6.943848609924316 16.86237335205078 C 8.820281982421875 14.00342845916748 11.13852596282959 11.47819519042969 13.83439254760742 9.356616973876953 C 16.55663681030273 7.21492862701416 19.58502578735352 5.547406196594238 22.83535957336426 4.400394916534424 C 26.20110321044922 3.212550640106201 29.73137092590332 2.610261678695679 33.32810211181641 2.610261678695679 C 36.92460250854492 2.610261678695679 40.45429229736328 3.212572813034058 43.81850433349609 4.40023946762085 C 47.07119369506836 5.547350406646729 50.09990310668945 7.215072631835938 52.81985855102539 9.356573104858398 C 55.51589202880859 11.47748374938965 57.83454895019531 14.00280570983887 59.71128082275391 16.86216163635254 C 61.39624404907227 19.42864990234375 62.68476104736328 22.20327377319336 63.55061721801758 25.12734985351562 L 64.20381164550781 25.12734985351562 C 63.38352203369141 22.30158805847168 62.17429733276367 19.60578918457031 60.59727096557617 17.09091758728027 C 58.70224761962891 14.07200622558594 56.33224868774414 11.4014949798584 53.55303573608398 9.153528213500977 C 50.7481689453125 6.884628295898438 47.61454772949219 5.116939544677734 44.23903656005859 3.899506092071533 C 40.74521636962891 2.639095067977905 37.07423782348633 2.000006198883057 33.32810211181641 2.000006198883057 C 29.58159255981445 2.000006198883057 25.90993690490723 2.639106273651123 22.41511535644531 3.899561643600464 C 19.04091453552246 5.116528511047363 15.9076042175293 6.884217262268066 13.10192584991455 9.153773307800293 C 10.32332611083984 11.40052795410156 7.953804016113281 14.07083988189697 6.058992862701416 17.09085083007812 C 4.480156898498535 19.60625457763672 3.270718336105347 22.30210304260254 2.451531171798706 25.12784957885742 L 3.104082822799683 25.12801170349121 M 33.32810211181641 68.01519775390625 C 29.34981536865234 68.01519775390625 25.44994926452637 67.33558654785156 21.73655891418457 65.99629211425781 C 18.15037155151367 64.70285797119141 14.8223819732666 62.8255500793457 11.84440422058105 60.41685104370117 C 8.892248153686523 58.02881622314453 6.376170635223389 55.1930046081543 4.365025997161865 51.98687362670898 C 2.313726186752319 48.71944046020508 0.8486484289169312 45.16363906860352 0.01091510429978371 41.41804122924805 C -0.01874045096337795 41.2890510559082 0.01282621547579765 41.15341567993164 0.096026211977005 41.05031585693359 C 0.1782706528902054 40.94746017456055 0.304504007101059 40.88712692260742 0.4364706575870514 40.88712692260742 L 4.295226097106934 40.88712692260742 C 4.495092868804932 40.88712692260742 4.669137477874756 41.02229690551758 4.718870639801025 41.21611785888672 C 5.516437530517578 44.35694122314453 6.828504085540771 47.33147430419922 8.615870475769043 50.05539321899414 C 10.37453746795654 52.73441696166992 12.54729270935059 55.09989547729492 15.07102584838867 57.08623886108398 C 17.62057113647461 59.0922966003418 20.4560489654541 60.65391540527344 23.5009708404541 61.72904968261719 C 26.65300369262695 62.84075164794922 29.95803642272949 63.4049186706543 33.32810211181641 63.4049186706543 C 36.69625854492188 63.4049186706543 40.00225830078125 62.84075164794922 43.15332794189453 61.72904968261719 C 46.19920349121094 60.65391540527344 49.03564834594727 59.09182739257812 51.58328247070312 57.08623886108398 C 54.10795974731445 55.09989547729492 56.28071594238281 52.73441696166992 58.03939437866211 50.05539321899414 C 59.82771682739258 47.33076095581055 61.13882446289062 44.35646057128906 61.93639373779297 41.21611785888672 C 61.98516082763672 41.02229690551758 62.16017150878906 40.88712692260742 62.36003875732422 40.88712692260742 L 66.21782684326172 40.88712692260742 C 66.35076141357422 40.88712692260742 66.47603607177734 40.94746017456055 66.55923461914062 41.05031585693359 C 66.6414794921875 41.15341567993164 66.67303466796875 41.2890510559082 66.64530181884766 41.41732788085938 C 65.80565643310547 45.16363906860352 64.34058380126953 48.71944046020508 62.29119110107422 51.98687362670898 C 60.27909469604492 55.1930046081543 57.76205825805664 58.02881622314453 54.81085968017578 60.41685104370117 C 51.83288192749023 62.8255500793457 48.50392532348633 64.70285797119141 44.9177360534668 65.99629211425781 C 41.20530319213867 67.33558654785156 37.30543899536133 68.01519775390625 33.32810211181641 68.01519775390625 Z M 35.12598037719727 57.66276168823242 L 31.6086368560791 57.66276168823242 C 31.33800315856934 57.66276168823242 31.11900329589844 57.44446182250977 31.11900329589844 57.17483901977539 L 31.11900329589844 52.62467193603516 C 28.22710418701172 52.14245986938477 25.57905960083008 50.71268463134766 23.62338256835938 48.57027435302734 C 22.6077709197998 47.45783996582031 21.81402587890625 46.19744110107422 21.2641487121582 44.82347106933594 C 20.69418144226074 43.39916229248047 20.40537071228027 41.89764022827148 20.40537071228027 40.3611946105957 C 20.40537071228027 40.09182739257812 20.62437057495117 39.87376022338867 20.89500427246094 39.87376022338867 L 24.45059204101562 39.87376022338867 C 24.72219276428223 39.87376022338867 24.94022560119629 40.09182739257812 24.94022560119629 40.3611946105957 C 24.94022560119629 44.79900741577148 28.702392578125 48.40992736816406 33.3271484375 48.40992736816406 C 37.95094680786133 48.40992736816406 41.7121467590332 44.79900741577148 41.7121467590332 40.3611946105957 C 41.7121467590332 35.92220687866211 37.95094680786133 32.31010437011719 33.3271484375 32.31010437011719 C 33.05650329589844 32.31010437011719 32.8365592956543 32.0922737121582 32.8365592956543 31.82313919067383 L 32.8365592956543 28.40226173400879 C 32.8365592956543 28.13311767578125 33.05650329589844 27.9150505065918 33.3271484375 27.9150505065918 C 40.43642807006836 27.9150505065918 46.22598266601562 33.47810745239258 46.24702453613281 40.32342910766602 C 46.24893569946289 40.33601760864258 46.24893569946289 40.34837341308594 46.24893569946289 40.3611946105957 C 46.24893569946289 41.89146041870117 45.9620361328125 43.3860969543457 45.39685821533203 44.80470657348633 C 44.85270309448242 46.17391586303711 44.06470489501953 47.43076324462891 43.05769348144531 48.54104995727539 C 41.11828231811523 50.67870712280273 38.4884033203125 52.11394882202148 35.61561584472656 52.61066055297852 L 35.61561584472656 57.17483901977539 C 35.61561584472656 57.44446182250977 35.39662551879883 57.66276168823242 35.12598037719727 57.66276168823242 Z M 33.3271484375 39.88777160644531 C 26.20352554321289 39.88777160644531 20.40728187561035 34.30381774902344 20.40537071228027 27.4411506652832 C 20.40537071228027 25.90257263183594 20.69418144226074 24.40129470825195 21.2641487121582 22.97673988342285 C 21.81498146057129 21.6023063659668 22.60872650146484 20.34166145324707 23.62338256835938 19.22970581054688 C 25.58001518249512 17.08682823181152 28.2290153503418 15.65799522399902 31.11900329589844 15.17553997039795 L 31.11900329589844 10.83963966369629 C 31.11900329589844 10.57026195526123 31.33800315856934 10.35219478607178 31.6086368560791 10.35219478607178 L 35.12598037719727 10.35219478607178 C 35.39662551879883 10.35219478607178 35.61561584472656 10.57026195526123 35.61561584472656 10.83963966369629 L 35.61561584472656 15.18883991241455 C 38.4884033203125 15.6862621307373 41.11828231811523 17.12150573730469 43.05769348144531 19.25963973999023 C 44.06470489501953 20.36921691894531 44.85270309448242 21.62677192687988 45.39685821533203 22.99621772766113 C 45.9620361328125 24.41555023193359 46.24893569946289 25.91088485717773 46.24893569946289 27.4411506652832 C 46.24893569946289 27.71052932739258 46.02993774414062 27.92907333374023 45.75929260253906 27.92907333374023 L 42.2017936706543 27.92907333374023 C 41.93114852905273 27.92907333374023 41.7121467590332 27.71052932739258 41.7121467590332 27.4411506652832 C 41.7121467590332 23.00097274780273 37.95094680786133 19.38886260986328 33.3271484375 19.38886260986328 C 28.70430374145508 19.38886260986328 24.94119262695312 23.00097274780273 24.94022560119629 27.44043922424316 C 24.94119262695312 31.87919425964355 28.70430374145508 35.49081802368164 33.3271484375 35.49081802368164 C 33.59778213500977 35.49081802368164 33.81678009033203 35.7093620300293 33.81678009033203 35.97874069213867 L 33.81678009033203 39.39986038208008 C 33.81678009033203 39.66923904418945 33.59778213500977 39.88777160644531 33.3271484375 39.88777160644531 Z M 4.295226097106934 27.12830543518066 L 0.4364706575870514 27.12734985351562 C 0.3035484254360199 27.12734985351562 0.1782706528902054 27.06772804260254 0.096026211977005 26.96416091918945 C 0.01282621547579765 26.8610725402832 -0.01874045096337795 26.72613906860352 0.01091510429978371 26.5971622467041 C 0.8486484289169312 22.8517951965332 2.313726186752319 19.29574966430664 4.365025997161865 16.02760696411133 C 6.376170635223389 12.82218360900879 8.892248153686523 9.985661506652832 11.84440422058105 7.598572731018066 C 14.8223819732666 5.189639568328857 18.15037155151367 3.311606168746948 21.73655891418457 2.018183946609497 C 25.44994926452637 0.6789062023162842 29.34981536865234 6.173367182782385e-06 33.32810211181641 6.173367182782385e-06 C 37.30543899536133 6.173367182782385e-06 41.20530319213867 0.6789062023162842 44.9177360534668 2.018183946609497 C 48.50392532348633 3.311606168746948 51.83288192749023 5.189639568328857 54.81085968017578 7.598572731018066 C 57.76205825805664 9.985661506652832 60.27909469604492 12.82218360900879 62.29119110107422 16.02760696411133 C 64.34058380126953 19.29574966430664 65.80565643310547 22.8517951965332 66.64530181884766 26.59643936157227 C 66.67303466796875 26.72566223144531 66.6414794921875 26.8610725402832 66.55923461914062 26.96416091918945 C 66.47603607177734 27.0670166015625 66.35076141357422 27.12734985351562 66.21782684326172 27.12734985351562 L 62.36003875732422 27.12734985351562 C 62.16017150878906 27.12734985351562 61.98516082763672 26.99219512939453 61.93639373779297 26.799072265625 C 61.13882446289062 23.65753936767578 59.82771682739258 20.68371772766113 58.03939437866211 17.95979499816895 C 56.28071594238281 15.28029537200928 54.10795974731445 12.91458415985107 51.58328247070312 10.9284725189209 C 49.03564834594727 8.922650337219238 46.19920349121094 7.360561847686768 43.15332794189453 6.286384105682373 C 40.00225830078125 5.173961639404297 36.69625854492188 4.610261917114258 33.32810211181641 4.610261917114258 C 29.95803642272949 4.610261917114258 26.65300369262695 5.173961639404297 23.5009708404541 6.286384105682373 C 20.45701599121094 7.360561847686768 17.62057113647461 8.922650337219238 15.07102584838867 10.9284725189209 C 12.54729270935059 12.91458415985107 10.37453746795654 15.28029537200928 8.615870475769043 17.95979499816895 C 6.829470634460449 20.68158340454102 5.518348217010498 23.65279579162598 4.720781803131104 26.790283203125 C 4.675837516784668 26.98292922973633 4.502737522125244 27.12830543518066 4.295226097106934 27.12830543518066 Z" stroke="none"/>
    </g>
    <g transform="matrix(1, 0, 0, 1, 0, 0)" filter="url(#Union_172)">
      <g id="Union_172-3" data-name="Union 172" transform="translate(7.73 7.05)" fill="#fff">
        <path d="M21.737,66A34.282,34.282,0,0,1,4.365,51.987,33.638,33.638,0,0,1,.011,41.418.432.432,0,0,1,.1,41.05a.437.437,0,0,1,.34-.163H4.3a.437.437,0,0,1,.424.329,29.168,29.168,0,0,0,3.9,8.839,29.555,29.555,0,0,0,49.424,0,29.158,29.158,0,0,0,3.9-8.839.436.436,0,0,1,.424-.329h3.858a.437.437,0,0,1,.427.53,33.725,33.725,0,0,1-4.354,10.57A34.207,34.207,0,0,1,21.737,66Zm9.872-8.334a.489.489,0,0,1-.49-.488v-4.55a13.06,13.06,0,0,1-7.5-4.054,12.35,12.35,0,0,1-2.359-3.747,11.958,11.958,0,0,1-.859-4.462.488.488,0,0,1,.49-.487h3.556a.488.488,0,0,1,.49.487,8.393,8.393,0,1,0,8.387-8.051.489.489,0,0,1-.491-.487V28.4a.489.489,0,0,1,.491-.487,12.707,12.707,0,0,1,12.92,12.408.249.249,0,0,1,0,.038A11.953,11.953,0,0,1,45.4,44.8a12.327,12.327,0,0,1-2.339,3.736,13.059,13.059,0,0,1-7.442,4.07v4.564a.489.489,0,0,1-.49.488Zm-11.2-30.222a11.962,11.962,0,0,1,.859-4.464,12.376,12.376,0,0,1,2.359-3.747,13.067,13.067,0,0,1,7.5-4.054V10.84a.488.488,0,0,1,.49-.487h3.517a.488.488,0,0,1,.49.487v4.349a13.062,13.062,0,0,1,7.442,4.071A12.317,12.317,0,0,1,45.4,23a11.963,11.963,0,0,1,.852,4.445.489.489,0,0,1-.49.488H42.2a.489.489,0,0,1-.49-.488,8.393,8.393,0,0,0-16.772,0,8.235,8.235,0,0,0,8.387,8.05.489.489,0,0,1,.49.488V39.4a.489.489,0,0,1-.49.488A12.708,12.708,0,0,1,20.405,27.441ZM.436,27.127a.434.434,0,0,1-.34-.163A.43.43,0,0,1,.011,26.6a33.651,33.651,0,0,1,4.354-10.57,34.191,34.191,0,0,1,57.926,0A33.745,33.745,0,0,1,66.645,26.6a.437.437,0,0,1-.427.531H62.36a.436.436,0,0,1-.424-.328,29.137,29.137,0,0,0-3.9-8.839,29.553,29.553,0,0,0-49.424,0,29.152,29.152,0,0,0-3.9,8.83.438.438,0,0,1-.426.338Z" stroke="none"/>
        <path d="M 33.32810211181641 66.01519775390625 C 37.07293701171875 66.01519775390625 40.74391555786133 65.37586975097656 44.23918151855469 64.11491394042969 C 47.61547088623047 62.89719390869141 50.74912643432617 61.12979507446289 53.55279159545898 58.86209487915039 C 56.33333587646484 56.61215209960938 58.70340347290039 53.94130706787109 60.59688186645508 50.92417144775391 C 62.17438125610352 48.40911102294922 63.38360595703125 45.71335220336914 64.20380401611328 42.88712692260742 L 63.55079650878906 42.88712692260742 C 62.68525314331055 45.80999755859375 61.39656829833984 48.58537292480469 59.71132659912109 51.15296173095703 C 57.8345947265625 54.01180648803711 55.5160026550293 56.53689575195312 52.82040405273438 58.65771865844727 C 50.10053634643555 60.79888534545898 47.07204818725586 62.46676254272461 43.8187255859375 63.61511611938477 C 40.45246124267578 64.80274200439453 36.92289352416992 65.40491485595703 33.32810211181641 65.40491485595703 C 29.73307037353516 65.40491485595703 26.20293807983398 64.80276489257812 22.83508110046387 63.61494064331055 C 19.58392715454102 62.46699523925781 16.55562591552734 60.79924011230469 13.83407020568848 58.65784072875977 C 11.13841533660889 56.53618240356445 8.820237159729004 54.01117324829102 6.94371509552002 51.15261840820312 C 5.257683753967285 48.5831298828125 3.968642950057983 45.80649566650391 3.104310512542725 42.88712692260742 L 2.451441526412964 42.88712692260742 C 3.270623445510864 45.71288299560547 4.480173110961914 48.40879821777344 6.059281826019287 50.92409515380859 C 7.952648639678955 53.94247436523438 10.32223701477051 56.61312866210938 13.10215950012207 58.86183929443359 C 15.90664863586426 61.13021850585938 19.03998184204102 62.89760589599609 22.41510391235352 64.11491394042969 C 25.9112377166748 65.37584686279297 29.58289337158203 66.01519775390625 33.32810211181641 66.01519775390625 M 33.61561584472656 55.66276168823242 L 33.61561584472656 50.92679595947266 L 35.27487182617188 50.63990783691406 C 37.70565032958984 50.2196159362793 39.9435920715332 48.99697113037109 41.57625961303711 47.19741821289062 C 42.42371368408203 46.2630500793457 43.08382797241211 45.20950698852539 43.53888320922852 44.06448364257812 C 43.99499893188477 42.91962432861328 44.23344802856445 41.7154541015625 44.24820709228516 40.48212432861328 L 44.24749374389648 40.4774284362793 L 44.24703598022461 40.32957458496094 C 44.23088836669922 35.07663345336914 40.13077163696289 30.71957015991211 34.8365592956543 30.01473808288574 L 34.8365592956543 30.41598510742188 C 39.8503532409668 31.12534141540527 43.7121467590332 35.31490707397461 43.7121467590332 40.3611946105957 C 43.7121467590332 45.90208435058594 39.05345916748047 50.40992736816406 33.3271484375 50.40992736816406 C 28.13112831115723 50.40992736816406 23.81396293640137 46.6995735168457 23.05765151977539 41.87376022338867 L 22.51923561096191 41.87376022338867 C 22.63394737243652 42.62772369384766 22.83501052856445 43.36576843261719 23.12096977233887 44.08034896850586 C 23.5811710357666 45.23026275634766 24.24715995788574 46.28719329833984 25.10050392150879 47.22189331054688 C 26.7472038269043 49.02582931518555 29.00143814086914 50.24396133422852 31.44794845581055 50.65190505981445 L 33.11900329589844 50.93054962158203 L 33.11900329589844 55.66276168823242 L 33.61561584472656 55.66276168823242 M 31.81678199768066 37.78818130493164 L 31.81678199768066 37.38481140136719 C 26.8034496307373 36.67510986328125 22.94132804870605 32.48616790771484 22.94022560119629 27.44000625610352 C 22.94143676757812 21.89778327941895 27.60098266601562 17.38886260986328 33.3271484375 17.38886260986328 C 38.52256011962891 17.38886260986328 42.83916091918945 21.10107421875 43.59490585327148 25.92907333374023 L 44.13496398925781 25.92907333374023 C 44.02091217041016 25.18015480041504 43.82155990600586 24.44632911682129 43.53821563720703 23.73476219177246 C 43.08341598510742 22.59019470214844 42.42345809936523 21.53677368164062 41.57631683349609 20.60334014892578 C 39.94379425048828 18.80353927612305 37.70572662353516 17.58050537109375 35.27439117431641 17.15951728820801 L 33.61561584472656 16.87229537963867 L 33.61561584472656 12.35219478607178 L 33.11900329589844 12.35219478607178 L 33.11900329589844 16.86933898925781 L 31.44832611083984 17.14823913574219 C 29.00142669677734 17.55672836303711 26.74699211120605 18.77487373352051 25.10075950622559 20.57780647277832 C 24.24819374084473 21.51212882995605 23.58197021484375 22.56957244873047 23.12103652954102 23.71968460083008 C 22.64616012573242 24.90658378601074 22.40537071228027 26.15867233276367 22.40537071228027 27.44059562683105 C 22.40683364868164 32.71105575561523 26.50792121887207 37.08246231079102 31.81678199768066 37.78818130493164 M 3.104082822799683 25.12801170349121 C 3.969192028045654 22.2064037322998 5.258061408996582 19.43086814880371 6.943848609924316 16.86237335205078 C 8.820281982421875 14.00342845916748 11.13852596282959 11.47819519042969 13.83439254760742 9.356616973876953 C 16.55663681030273 7.21492862701416 19.58502578735352 5.547406196594238 22.83535957336426 4.400394916534424 C 26.20110321044922 3.212550640106201 29.73137092590332 2.610261678695679 33.32810211181641 2.610261678695679 C 36.92460250854492 2.610261678695679 40.45429229736328 3.212572813034058 43.81850433349609 4.40023946762085 C 47.07119369506836 5.547350406646729 50.09990310668945 7.215072631835938 52.81985855102539 9.356573104858398 C 55.51589202880859 11.47748374938965 57.83454895019531 14.00280570983887 59.71128082275391 16.86216163635254 C 61.39624404907227 19.42864990234375 62.68476104736328 22.20327377319336 63.55061721801758 25.12734985351562 L 64.20381164550781 25.12734985351562 C 63.38352203369141 22.30158805847168 62.17429733276367 19.60578918457031 60.59727096557617 17.09091758728027 C 58.70224761962891 14.07200622558594 56.33224868774414 11.4014949798584 53.55303573608398 9.153528213500977 C 50.7481689453125 6.884628295898438 47.61454772949219 5.116939544677734 44.23903656005859 3.899506092071533 C 40.74521636962891 2.639095067977905 37.07423782348633 2.000006198883057 33.32810211181641 2.000006198883057 C 29.58159255981445 2.000006198883057 25.90993690490723 2.639106273651123 22.41511535644531 3.899561643600464 C 19.04091453552246 5.116528511047363 15.9076042175293 6.884217262268066 13.10192584991455 9.153773307800293 C 10.32332611083984 11.40052795410156 7.953804016113281 14.07083988189697 6.058992862701416 17.09085083007812 C 4.480156898498535 19.60625457763672 3.270718336105347 22.30210304260254 2.451531171798706 25.12784957885742 L 3.104082822799683 25.12801170349121 M 33.32810211181641 68.01519775390625 C 29.34981536865234 68.01519775390625 25.44994926452637 67.33558654785156 21.73655891418457 65.99629211425781 C 18.15037155151367 64.70285797119141 14.8223819732666 62.8255500793457 11.84440422058105 60.41685104370117 C 8.892248153686523 58.02881622314453 6.376170635223389 55.1930046081543 4.365025997161865 51.98687362670898 C 2.313726186752319 48.71944046020508 0.8486484289169312 45.16363906860352 0.01091510429978371 41.41804122924805 C -0.01874045096337795 41.2890510559082 0.01282621547579765 41.15341567993164 0.096026211977005 41.05031585693359 C 0.1782706528902054 40.94746017456055 0.304504007101059 40.88712692260742 0.4364706575870514 40.88712692260742 L 4.295226097106934 40.88712692260742 C 4.495092868804932 40.88712692260742 4.669137477874756 41.02229690551758 4.718870639801025 41.21611785888672 C 5.516437530517578 44.35694122314453 6.828504085540771 47.33147430419922 8.615870475769043 50.05539321899414 C 10.37453746795654 52.73441696166992 12.54729270935059 55.09989547729492 15.07102584838867 57.08623886108398 C 17.62057113647461 59.0922966003418 20.4560489654541 60.65391540527344 23.5009708404541 61.72904968261719 C 26.65300369262695 62.84075164794922 29.95803642272949 63.4049186706543 33.32810211181641 63.4049186706543 C 36.69625854492188 63.4049186706543 40.00225830078125 62.84075164794922 43.15332794189453 61.72904968261719 C 46.19920349121094 60.65391540527344 49.03564834594727 59.09182739257812 51.58328247070312 57.08623886108398 C 54.10795974731445 55.09989547729492 56.28071594238281 52.73441696166992 58.03939437866211 50.05539321899414 C 59.82771682739258 47.33076095581055 61.13882446289062 44.35646057128906 61.93639373779297 41.21611785888672 C 61.98516082763672 41.02229690551758 62.16017150878906 40.88712692260742 62.36003875732422 40.88712692260742 L 66.21782684326172 40.88712692260742 C 66.35076141357422 40.88712692260742 66.47603607177734 40.94746017456055 66.55923461914062 41.05031585693359 C 66.6414794921875 41.15341567993164 66.67303466796875 41.2890510559082 66.64530181884766 41.41732788085938 C 65.80565643310547 45.16363906860352 64.34058380126953 48.71944046020508 62.29119110107422 51.98687362670898 C 60.27909469604492 55.1930046081543 57.76205825805664 58.02881622314453 54.81085968017578 60.41685104370117 C 51.83288192749023 62.8255500793457 48.50392532348633 64.70285797119141 44.9177360534668 65.99629211425781 C 41.20530319213867 67.33558654785156 37.30543899536133 68.01519775390625 33.32810211181641 68.01519775390625 Z M 35.12598037719727 57.66276168823242 L 31.6086368560791 57.66276168823242 C 31.33800315856934 57.66276168823242 31.11900329589844 57.44446182250977 31.11900329589844 57.17483901977539 L 31.11900329589844 52.62467193603516 C 28.22710418701172 52.14245986938477 25.57905960083008 50.71268463134766 23.62338256835938 48.57027435302734 C 22.6077709197998 47.45783996582031 21.81402587890625 46.19744110107422 21.2641487121582 44.82347106933594 C 20.69418144226074 43.39916229248047 20.40537071228027 41.89764022827148 20.40537071228027 40.3611946105957 C 20.40537071228027 40.09182739257812 20.62437057495117 39.87376022338867 20.89500427246094 39.87376022338867 L 24.45059204101562 39.87376022338867 C 24.72219276428223 39.87376022338867 24.94022560119629 40.09182739257812 24.94022560119629 40.3611946105957 C 24.94022560119629 44.79900741577148 28.702392578125 48.40992736816406 33.3271484375 48.40992736816406 C 37.95094680786133 48.40992736816406 41.7121467590332 44.79900741577148 41.7121467590332 40.3611946105957 C 41.7121467590332 35.92220687866211 37.95094680786133 32.31010437011719 33.3271484375 32.31010437011719 C 33.05650329589844 32.31010437011719 32.8365592956543 32.0922737121582 32.8365592956543 31.82313919067383 L 32.8365592956543 28.40226173400879 C 32.8365592956543 28.13311767578125 33.05650329589844 27.9150505065918 33.3271484375 27.9150505065918 C 40.43642807006836 27.9150505065918 46.22598266601562 33.47810745239258 46.24702453613281 40.32342910766602 C 46.24893569946289 40.33601760864258 46.24893569946289 40.34837341308594 46.24893569946289 40.3611946105957 C 46.24893569946289 41.89146041870117 45.9620361328125 43.3860969543457 45.39685821533203 44.80470657348633 C 44.85270309448242 46.17391586303711 44.06470489501953 47.43076324462891 43.05769348144531 48.54104995727539 C 41.11828231811523 50.67870712280273 38.4884033203125 52.11394882202148 35.61561584472656 52.61066055297852 L 35.61561584472656 57.17483901977539 C 35.61561584472656 57.44446182250977 35.39662551879883 57.66276168823242 35.12598037719727 57.66276168823242 Z M 33.3271484375 39.88777160644531 C 26.20352554321289 39.88777160644531 20.40728187561035 34.30381774902344 20.40537071228027 27.4411506652832 C 20.40537071228027 25.90257263183594 20.69418144226074 24.40129470825195 21.2641487121582 22.97673988342285 C 21.81498146057129 21.6023063659668 22.60872650146484 20.34166145324707 23.62338256835938 19.22970581054688 C 25.58001518249512 17.08682823181152 28.2290153503418 15.65799522399902 31.11900329589844 15.17553997039795 L 31.11900329589844 10.83963966369629 C 31.11900329589844 10.57026195526123 31.33800315856934 10.35219478607178 31.6086368560791 10.35219478607178 L 35.12598037719727 10.35219478607178 C 35.39662551879883 10.35219478607178 35.61561584472656 10.57026195526123 35.61561584472656 10.83963966369629 L 35.61561584472656 15.18883991241455 C 38.4884033203125 15.6862621307373 41.11828231811523 17.12150573730469 43.05769348144531 19.25963973999023 C 44.06470489501953 20.36921691894531 44.85270309448242 21.62677192687988 45.39685821533203 22.99621772766113 C 45.9620361328125 24.41555023193359 46.24893569946289 25.91088485717773 46.24893569946289 27.4411506652832 C 46.24893569946289 27.71052932739258 46.02993774414062 27.92907333374023 45.75929260253906 27.92907333374023 L 42.2017936706543 27.92907333374023 C 41.93114852905273 27.92907333374023 41.7121467590332 27.71052932739258 41.7121467590332 27.4411506652832 C 41.7121467590332 23.00097274780273 37.95094680786133 19.38886260986328 33.3271484375 19.38886260986328 C 28.70430374145508 19.38886260986328 24.94119262695312 23.00097274780273 24.94022560119629 27.44043922424316 C 24.94119262695312 31.87919425964355 28.70430374145508 35.49081802368164 33.3271484375 35.49081802368164 C 33.59778213500977 35.49081802368164 33.81678009033203 35.7093620300293 33.81678009033203 35.97874069213867 L 33.81678009033203 39.39986038208008 C 33.81678009033203 39.66923904418945 33.59778213500977 39.88777160644531 33.3271484375 39.88777160644531 Z M 4.295226097106934 27.12830543518066 L 0.4364706575870514 27.12734985351562 C 0.3035484254360199 27.12734985351562 0.1782706528902054 27.06772804260254 0.096026211977005 26.96416091918945 C 0.01282621547579765 26.8610725402832 -0.01874045096337795 26.72613906860352 0.01091510429978371 26.5971622467041 C 0.8486484289169312 22.8517951965332 2.313726186752319 19.29574966430664 4.365025997161865 16.02760696411133 C 6.376170635223389 12.82218360900879 8.892248153686523 9.985661506652832 11.84440422058105 7.598572731018066 C 14.8223819732666 5.189639568328857 18.15037155151367 3.311606168746948 21.73655891418457 2.018183946609497 C 25.44994926452637 0.6789062023162842 29.34981536865234 6.173367182782385e-06 33.32810211181641 6.173367182782385e-06 C 37.30543899536133 6.173367182782385e-06 41.20530319213867 0.6789062023162842 44.9177360534668 2.018183946609497 C 48.50392532348633 3.311606168746948 51.83288192749023 5.189639568328857 54.81085968017578 7.598572731018066 C 57.76205825805664 9.985661506652832 60.27909469604492 12.82218360900879 62.29119110107422 16.02760696411133 C 64.34058380126953 19.29574966430664 65.80565643310547 22.8517951965332 66.64530181884766 26.59643936157227 C 66.67303466796875 26.72566223144531 66.6414794921875 26.8610725402832 66.55923461914062 26.96416091918945 C 66.47603607177734 27.0670166015625 66.35076141357422 27.12734985351562 66.21782684326172 27.12734985351562 L 62.36003875732422 27.12734985351562 C 62.16017150878906 27.12734985351562 61.98516082763672 26.99219512939453 61.93639373779297 26.799072265625 C 61.13882446289062 23.65753936767578 59.82771682739258 20.68371772766113 58.03939437866211 17.95979499816895 C 56.28071594238281 15.28029537200928 54.10795974731445 12.91458415985107 51.58328247070312 10.9284725189209 C 49.03564834594727 8.922650337219238 46.19920349121094 7.360561847686768 43.15332794189453 6.286384105682373 C 40.00225830078125 5.173961639404297 36.69625854492188 4.610261917114258 33.32810211181641 4.610261917114258 C 29.95803642272949 4.610261917114258 26.65300369262695 5.173961639404297 23.5009708404541 6.286384105682373 C 20.45701599121094 7.360561847686768 17.62057113647461 8.922650337219238 15.07102584838867 10.9284725189209 C 12.54729270935059 12.91458415985107 10.37453746795654 15.28029537200928 8.615870475769043 17.95979499816895 C 6.829470634460449 20.68158340454102 5.518348217010498 23.65279579162598 4.720781803131104 26.790283203125 C 4.675837516784668 26.98292922973633 4.502737522125244 27.12830543518066 4.295226097106934 27.12830543518066 Z" stroke="none"/>
      </g>
    </g>
    <g id="Union_172-4" data-name="Union 172" transform="translate(7.728 7.048)" fill="none">
      <path d="M21.737,66A34.282,34.282,0,0,1,4.365,51.987,33.638,33.638,0,0,1,.011,41.418.432.432,0,0,1,.1,41.05a.437.437,0,0,1,.34-.163H4.3a.437.437,0,0,1,.424.329,29.168,29.168,0,0,0,3.9,8.839,29.555,29.555,0,0,0,49.424,0,29.158,29.158,0,0,0,3.9-8.839.436.436,0,0,1,.424-.329h3.858a.437.437,0,0,1,.427.53,33.725,33.725,0,0,1-4.354,10.57A34.207,34.207,0,0,1,21.737,66Zm9.872-8.334a.489.489,0,0,1-.49-.488v-4.55a13.06,13.06,0,0,1-7.5-4.054,12.35,12.35,0,0,1-2.359-3.747,11.958,11.958,0,0,1-.859-4.462.488.488,0,0,1,.49-.487h3.556a.488.488,0,0,1,.49.487,8.393,8.393,0,1,0,8.387-8.051.489.489,0,0,1-.491-.487V28.4a.489.489,0,0,1,.491-.487,12.707,12.707,0,0,1,12.92,12.408.249.249,0,0,1,0,.038A11.953,11.953,0,0,1,45.4,44.8a12.327,12.327,0,0,1-2.339,3.736,13.059,13.059,0,0,1-7.442,4.07v4.564a.489.489,0,0,1-.49.488Zm-11.2-30.222a11.962,11.962,0,0,1,.859-4.464,12.376,12.376,0,0,1,2.359-3.747,13.067,13.067,0,0,1,7.5-4.054V10.84a.488.488,0,0,1,.49-.487h3.517a.488.488,0,0,1,.49.487v4.349a13.062,13.062,0,0,1,7.442,4.071A12.317,12.317,0,0,1,45.4,23a11.963,11.963,0,0,1,.852,4.445.489.489,0,0,1-.49.488H42.2a.489.489,0,0,1-.49-.488,8.393,8.393,0,0,0-16.772,0,8.235,8.235,0,0,0,8.387,8.05.489.489,0,0,1,.49.488V39.4a.489.489,0,0,1-.49.488A12.708,12.708,0,0,1,20.405,27.441ZM.436,27.127a.434.434,0,0,1-.34-.163A.43.43,0,0,1,.011,26.6a33.651,33.651,0,0,1,4.354-10.57,34.191,34.191,0,0,1,57.926,0A33.745,33.745,0,0,1,66.645,26.6a.437.437,0,0,1-.427.531H62.36a.436.436,0,0,1-.424-.328,29.137,29.137,0,0,0-3.9-8.839,29.553,29.553,0,0,0-49.424,0,29.152,29.152,0,0,0-3.9,8.83.438.438,0,0,1-.426.338Z" stroke="none"/>
      <path d="M 33.32810211181641 66.01519775390625 C 37.07293701171875 66.01519775390625 40.74391555786133 65.37586975097656 44.23918151855469 64.11491394042969 C 47.61547088623047 62.89719390869141 50.74912643432617 61.12979507446289 53.55279159545898 58.86209487915039 C 56.33333587646484 56.61215209960938 58.70340347290039 53.94130706787109 60.59688186645508 50.92417144775391 C 62.17438125610352 48.40911102294922 63.38360595703125 45.71335220336914 64.20380401611328 42.88712692260742 L 63.55079650878906 42.88712692260742 C 62.68525314331055 45.80999755859375 61.39656829833984 48.58537292480469 59.71132659912109 51.15296173095703 C 57.8345947265625 54.01180648803711 55.5160026550293 56.53689575195312 52.82040405273438 58.65771865844727 C 50.10053634643555 60.79888534545898 47.07204818725586 62.46676254272461 43.8187255859375 63.61511611938477 C 40.45246124267578 64.80274200439453 36.92289352416992 65.40491485595703 33.32810211181641 65.40491485595703 C 29.73307037353516 65.40491485595703 26.20293807983398 64.80276489257812 22.83508110046387 63.61494064331055 C 19.58392715454102 62.46699523925781 16.55562591552734 60.79924011230469 13.83407020568848 58.65784072875977 C 11.13841533660889 56.53618240356445 8.820237159729004 54.01117324829102 6.94371509552002 51.15261840820312 C 5.257683753967285 48.5831298828125 3.968642950057983 45.80649566650391 3.104310512542725 42.88712692260742 L 2.451441526412964 42.88712692260742 C 3.270623445510864 45.71288299560547 4.480173110961914 48.40879821777344 6.059281826019287 50.92409515380859 C 7.952648639678955 53.94247436523438 10.32223701477051 56.61312866210938 13.10215950012207 58.86183929443359 C 15.90664863586426 61.13021850585938 19.03998184204102 62.89760589599609 22.41510391235352 64.11491394042969 C 25.9112377166748 65.37584686279297 29.58289337158203 66.01519775390625 33.32810211181641 66.01519775390625 M 33.61561584472656 55.66276168823242 L 33.61561584472656 50.92679595947266 L 35.27487182617188 50.63990783691406 C 37.70565032958984 50.2196159362793 39.9435920715332 48.99697113037109 41.57625961303711 47.19741821289062 C 42.42371368408203 46.2630500793457 43.08382797241211 45.20950698852539 43.53888320922852 44.06448364257812 C 43.99499893188477 42.91962432861328 44.23344802856445 41.7154541015625 44.24820709228516 40.48212432861328 L 44.24749374389648 40.4774284362793 L 44.24703598022461 40.32957458496094 C 44.23088836669922 35.07663345336914 40.13077163696289 30.71957015991211 34.8365592956543 30.01473808288574 L 34.8365592956543 30.41598510742188 C 39.8503532409668 31.12534141540527 43.7121467590332 35.31490707397461 43.7121467590332 40.3611946105957 C 43.7121467590332 45.90208435058594 39.05345916748047 50.40992736816406 33.3271484375 50.40992736816406 C 28.13112831115723 50.40992736816406 23.81396293640137 46.6995735168457 23.05765151977539 41.87376022338867 L 22.51923561096191 41.87376022338867 C 22.63394737243652 42.62772369384766 22.83501052856445 43.36576843261719 23.12096977233887 44.08034896850586 C 23.5811710357666 45.23026275634766 24.24715995788574 46.28719329833984 25.10050392150879 47.22189331054688 C 26.7472038269043 49.02582931518555 29.00143814086914 50.24396133422852 31.44794845581055 50.65190505981445 L 33.11900329589844 50.93054962158203 L 33.11900329589844 55.66276168823242 L 33.61561584472656 55.66276168823242 M 31.81678199768066 37.78818130493164 L 31.81678199768066 37.38481140136719 C 26.8034496307373 36.67510986328125 22.94132804870605 32.48616790771484 22.94022560119629 27.44000625610352 C 22.94143676757812 21.89778327941895 27.60098266601562 17.38886260986328 33.3271484375 17.38886260986328 C 38.52256011962891 17.38886260986328 42.83916091918945 21.10107421875 43.59490585327148 25.92907333374023 L 44.13496398925781 25.92907333374023 C 44.02091217041016 25.18015480041504 43.82155990600586 24.44632911682129 43.53821563720703 23.73476219177246 C 43.08341598510742 22.59019470214844 42.42345809936523 21.53677368164062 41.57631683349609 20.60334014892578 C 39.94379425048828 18.80353927612305 37.70572662353516 17.58050537109375 35.27439117431641 17.15951728820801 L 33.61561584472656 16.87229537963867 L 33.61561584472656 12.35219478607178 L 33.11900329589844 12.35219478607178 L 33.11900329589844 16.86933898925781 L 31.44832611083984 17.14823913574219 C 29.00142669677734 17.55672836303711 26.74699211120605 18.77487373352051 25.10075950622559 20.57780647277832 C 24.24819374084473 21.51212882995605 23.58197021484375 22.56957244873047 23.12103652954102 23.71968460083008 C 22.64616012573242 24.90658378601074 22.40537071228027 26.15867233276367 22.40537071228027 27.44059562683105 C 22.40683364868164 32.71105575561523 26.50792121887207 37.08246231079102 31.81678199768066 37.78818130493164 M 3.104082822799683 25.12801170349121 C 3.969192028045654 22.2064037322998 5.258061408996582 19.43086814880371 6.943848609924316 16.86237335205078 C 8.820281982421875 14.00342845916748 11.13852596282959 11.47819519042969 13.83439254760742 9.356616973876953 C 16.55663681030273 7.21492862701416 19.58502578735352 5.547406196594238 22.83535957336426 4.400394916534424 C 26.20110321044922 3.212550640106201 29.73137092590332 2.610261678695679 33.32810211181641 2.610261678695679 C 36.92460250854492 2.610261678695679 40.45429229736328 3.212572813034058 43.81850433349609 4.40023946762085 C 47.07119369506836 5.547350406646729 50.09990310668945 7.215072631835938 52.81985855102539 9.356573104858398 C 55.51589202880859 11.47748374938965 57.83454895019531 14.00280570983887 59.71128082275391 16.86216163635254 C 61.39624404907227 19.42864990234375 62.68476104736328 22.20327377319336 63.55061721801758 25.12734985351562 L 64.20381164550781 25.12734985351562 C 63.38352203369141 22.30158805847168 62.17429733276367 19.60578918457031 60.59727096557617 17.09091758728027 C 58.70224761962891 14.07200622558594 56.33224868774414 11.4014949798584 53.55303573608398 9.153528213500977 C 50.7481689453125 6.884628295898438 47.61454772949219 5.116939544677734 44.23903656005859 3.899506092071533 C 40.74521636962891 2.639095067977905 37.07423782348633 2.000006198883057 33.32810211181641 2.000006198883057 C 29.58159255981445 2.000006198883057 25.90993690490723 2.639106273651123 22.41511535644531 3.899561643600464 C 19.04091453552246 5.116528511047363 15.9076042175293 6.884217262268066 13.10192584991455 9.153773307800293 C 10.32332611083984 11.40052795410156 7.953804016113281 14.07083988189697 6.058992862701416 17.09085083007812 C 4.480156898498535 19.60625457763672 3.270718336105347 22.30210304260254 2.451531171798706 25.12784957885742 L 3.104082822799683 25.12801170349121 M 33.32810211181641 68.01519775390625 C 29.34981536865234 68.01519775390625 25.44994926452637 67.33558654785156 21.73655891418457 65.99629211425781 C 18.15037155151367 64.70285797119141 14.8223819732666 62.8255500793457 11.84440422058105 60.41685104370117 C 8.892248153686523 58.02881622314453 6.376170635223389 55.1930046081543 4.365025997161865 51.98687362670898 C 2.313726186752319 48.71944046020508 0.8486484289169312 45.16363906860352 0.01091510429978371 41.41804122924805 C -0.01874045096337795 41.2890510559082 0.01282621547579765 41.15341567993164 0.096026211977005 41.05031585693359 C 0.1782706528902054 40.94746017456055 0.304504007101059 40.88712692260742 0.4364706575870514 40.88712692260742 L 4.295226097106934 40.88712692260742 C 4.495092868804932 40.88712692260742 4.669137477874756 41.02229690551758 4.718870639801025 41.21611785888672 C 5.516437530517578 44.35694122314453 6.828504085540771 47.33147430419922 8.615870475769043 50.05539321899414 C 10.37453746795654 52.73441696166992 12.54729270935059 55.09989547729492 15.07102584838867 57.08623886108398 C 17.62057113647461 59.0922966003418 20.4560489654541 60.65391540527344 23.5009708404541 61.72904968261719 C 26.65300369262695 62.84075164794922 29.95803642272949 63.4049186706543 33.32810211181641 63.4049186706543 C 36.69625854492188 63.4049186706543 40.00225830078125 62.84075164794922 43.15332794189453 61.72904968261719 C 46.19920349121094 60.65391540527344 49.03564834594727 59.09182739257812 51.58328247070312 57.08623886108398 C 54.10795974731445 55.09989547729492 56.28071594238281 52.73441696166992 58.03939437866211 50.05539321899414 C 59.82771682739258 47.33076095581055 61.13882446289062 44.35646057128906 61.93639373779297 41.21611785888672 C 61.98516082763672 41.02229690551758 62.16017150878906 40.88712692260742 62.36003875732422 40.88712692260742 L 66.21782684326172 40.88712692260742 C 66.35076141357422 40.88712692260742 66.47603607177734 40.94746017456055 66.55923461914062 41.05031585693359 C 66.6414794921875 41.15341567993164 66.67303466796875 41.2890510559082 66.64530181884766 41.41732788085938 C 65.80565643310547 45.16363906860352 64.34058380126953 48.71944046020508 62.29119110107422 51.98687362670898 C 60.27909469604492 55.1930046081543 57.76205825805664 58.02881622314453 54.81085968017578 60.41685104370117 C 51.83288192749023 62.8255500793457 48.50392532348633 64.70285797119141 44.9177360534668 65.99629211425781 C 41.20530319213867 67.33558654785156 37.30543899536133 68.01519775390625 33.32810211181641 68.01519775390625 Z M 35.12598037719727 57.66276168823242 L 31.6086368560791 57.66276168823242 C 31.33800315856934 57.66276168823242 31.11900329589844 57.44446182250977 31.11900329589844 57.17483901977539 L 31.11900329589844 52.62467193603516 C 28.22710418701172 52.14245986938477 25.57905960083008 50.71268463134766 23.62338256835938 48.57027435302734 C 22.6077709197998 47.45783996582031 21.81402587890625 46.19744110107422 21.2641487121582 44.82347106933594 C 20.69418144226074 43.39916229248047 20.40537071228027 41.89764022827148 20.40537071228027 40.3611946105957 C 20.40537071228027 40.09182739257812 20.62437057495117 39.87376022338867 20.89500427246094 39.87376022338867 L 24.45059204101562 39.87376022338867 C 24.72219276428223 39.87376022338867 24.94022560119629 40.09182739257812 24.94022560119629 40.3611946105957 C 24.94022560119629 44.79900741577148 28.702392578125 48.40992736816406 33.3271484375 48.40992736816406 C 37.95094680786133 48.40992736816406 41.7121467590332 44.79900741577148 41.7121467590332 40.3611946105957 C 41.7121467590332 35.92220687866211 37.95094680786133 32.31010437011719 33.3271484375 32.31010437011719 C 33.05650329589844 32.31010437011719 32.8365592956543 32.0922737121582 32.8365592956543 31.82313919067383 L 32.8365592956543 28.40226173400879 C 32.8365592956543 28.13311767578125 33.05650329589844 27.9150505065918 33.3271484375 27.9150505065918 C 40.43642807006836 27.9150505065918 46.22598266601562 33.47810745239258 46.24702453613281 40.32342910766602 C 46.24893569946289 40.33601760864258 46.24893569946289 40.34837341308594 46.24893569946289 40.3611946105957 C 46.24893569946289 41.89146041870117 45.9620361328125 43.3860969543457 45.39685821533203 44.80470657348633 C 44.85270309448242 46.17391586303711 44.06470489501953 47.43076324462891 43.05769348144531 48.54104995727539 C 41.11828231811523 50.67870712280273 38.4884033203125 52.11394882202148 35.61561584472656 52.61066055297852 L 35.61561584472656 57.17483901977539 C 35.61561584472656 57.44446182250977 35.39662551879883 57.66276168823242 35.12598037719727 57.66276168823242 Z M 33.3271484375 39.88777160644531 C 26.20352554321289 39.88777160644531 20.40728187561035 34.30381774902344 20.40537071228027 27.4411506652832 C 20.40537071228027 25.90257263183594 20.69418144226074 24.40129470825195 21.2641487121582 22.97673988342285 C 21.81498146057129 21.6023063659668 22.60872650146484 20.34166145324707 23.62338256835938 19.22970581054688 C 25.58001518249512 17.08682823181152 28.2290153503418 15.65799522399902 31.11900329589844 15.17553997039795 L 31.11900329589844 10.83963966369629 C 31.11900329589844 10.57026195526123 31.33800315856934 10.35219478607178 31.6086368560791 10.35219478607178 L 35.12598037719727 10.35219478607178 C 35.39662551879883 10.35219478607178 35.61561584472656 10.57026195526123 35.61561584472656 10.83963966369629 L 35.61561584472656 15.18883991241455 C 38.4884033203125 15.6862621307373 41.11828231811523 17.12150573730469 43.05769348144531 19.25963973999023 C 44.06470489501953 20.36921691894531 44.85270309448242 21.62677192687988 45.39685821533203 22.99621772766113 C 45.9620361328125 24.41555023193359 46.24893569946289 25.91088485717773 46.24893569946289 27.4411506652832 C 46.24893569946289 27.71052932739258 46.02993774414062 27.92907333374023 45.75929260253906 27.92907333374023 L 42.2017936706543 27.92907333374023 C 41.93114852905273 27.92907333374023 41.7121467590332 27.71052932739258 41.7121467590332 27.4411506652832 C 41.7121467590332 23.00097274780273 37.95094680786133 19.38886260986328 33.3271484375 19.38886260986328 C 28.70430374145508 19.38886260986328 24.94119262695312 23.00097274780273 24.94022560119629 27.44043922424316 C 24.94119262695312 31.87919425964355 28.70430374145508 35.49081802368164 33.3271484375 35.49081802368164 C 33.59778213500977 35.49081802368164 33.81678009033203 35.7093620300293 33.81678009033203 35.97874069213867 L 33.81678009033203 39.39986038208008 C 33.81678009033203 39.66923904418945 33.59778213500977 39.88777160644531 33.3271484375 39.88777160644531 Z M 4.295226097106934 27.12830543518066 L 0.4364706575870514 27.12734985351562 C 0.3035484254360199 27.12734985351562 0.1782706528902054 27.06772804260254 0.096026211977005 26.96416091918945 C 0.01282621547579765 26.8610725402832 -0.01874045096337795 26.72613906860352 0.01091510429978371 26.5971622467041 C 0.8486484289169312 22.8517951965332 2.313726186752319 19.29574966430664 4.365025997161865 16.02760696411133 C 6.376170635223389 12.82218360900879 8.892248153686523 9.985661506652832 11.84440422058105 7.598572731018066 C 14.8223819732666 5.189639568328857 18.15037155151367 3.311606168746948 21.73655891418457 2.018183946609497 C 25.44994926452637 0.6789062023162842 29.34981536865234 6.173367182782385e-06 33.32810211181641 6.173367182782385e-06 C 37.30543899536133 6.173367182782385e-06 41.20530319213867 0.6789062023162842 44.9177360534668 2.018183946609497 C 48.50392532348633 3.311606168746948 51.83288192749023 5.189639568328857 54.81085968017578 7.598572731018066 C 57.76205825805664 9.985661506652832 60.27909469604492 12.82218360900879 62.29119110107422 16.02760696411133 C 64.34058380126953 19.29574966430664 65.80565643310547 22.8517951965332 66.64530181884766 26.59643936157227 C 66.67303466796875 26.72566223144531 66.6414794921875 26.8610725402832 66.55923461914062 26.96416091918945 C 66.47603607177734 27.0670166015625 66.35076141357422 27.12734985351562 66.21782684326172 27.12734985351562 L 62.36003875732422 27.12734985351562 C 62.16017150878906 27.12734985351562 61.98516082763672 26.99219512939453 61.93639373779297 26.799072265625 C 61.13882446289062 23.65753936767578 59.82771682739258 20.68371772766113 58.03939437866211 17.95979499816895 C 56.28071594238281 15.28029537200928 54.10795974731445 12.91458415985107 51.58328247070312 10.9284725189209 C 49.03564834594727 8.922650337219238 46.19920349121094 7.360561847686768 43.15332794189453 6.286384105682373 C 40.00225830078125 5.173961639404297 36.69625854492188 4.610261917114258 33.32810211181641 4.610261917114258 C 29.95803642272949 4.610261917114258 26.65300369262695 5.173961639404297 23.5009708404541 6.286384105682373 C 20.45701599121094 7.360561847686768 17.62057113647461 8.922650337219238 15.07102584838867 10.9284725189209 C 12.54729270935059 12.91458415985107 10.37453746795654 15.28029537200928 8.615870475769043 17.95979499816895 C 6.829470634460449 20.68158340454102 5.518348217010498 23.65279579162598 4.720781803131104 26.790283203125 C 4.675837516784668 26.98292922973633 4.502737522125244 27.12830543518066 4.295226097106934 27.12830543518066 Z" stroke="none" fill="rgba(255,255,255,0.27)"/>
    </g>
  </g>
</svg>
