<svg width="28" height="32" viewBox="0 0 28 32" fill="none" xmlns="http://www.w3.org/2000/svg">
<path d="M12.9424 30.6203H15.2344C16.2392 30.6203 17.0296 29.8899 17.2554 28.7742L17.6844 26.5563L17.9329 26.4499L19.5813 27.6453C20.4167 28.2563 21.4103 28.0968 22.1104 27.2602L23.7024 25.4008C24.4136 24.5507 24.5378 23.3954 24.0185 22.4258L22.991 20.5L23.0813 20.2344L24.9556 19.7032C25.9039 19.4242 26.525 18.5078 26.525 17.339V14.7359C26.525 13.5805 25.9039 12.6375 24.9556 12.3719L23.0926 11.8273L23.0023 11.5484L24.0185 9.62266C24.5491 8.6664 24.4136 7.51095 23.7024 6.64767L22.1217 4.77501C21.4216 3.95157 20.428 3.79219 19.5926 4.40312L17.9442 5.58515L17.6844 5.46563L17.2554 3.24767C17.0296 2.13203 16.2392 1.40157 15.2344 1.40157H12.9424C11.9489 1.40157 11.1585 2.13203 10.9327 3.24767L10.4924 5.46563L10.2327 5.58515L8.59559 4.40312C7.7488 3.79219 6.75523 3.95157 6.06651 4.77501L4.47454 6.64767C3.76325 7.51095 3.63905 8.6664 4.15841 9.62266L5.18585 11.5484L5.08424 11.8273L3.2213 12.3719C2.27289 12.6508 1.66321 13.5805 1.66321 14.7359V17.339C1.66321 18.5078 2.28418 19.4374 3.2213 19.7032L5.10682 20.2344L5.18585 20.5L4.1697 22.4258C3.65034 23.3954 3.77454 24.5507 4.48585 25.4008L6.07781 27.2602C6.76652 28.0968 7.77138 28.2563 8.60688 27.6453L10.2553 26.4499L10.4924 26.5563L10.9327 28.7742C11.1585 29.8899 11.9489 30.6203 12.9424 30.6203ZM13.315 27.8976C13.1231 27.8976 13.0328 27.8046 13.0102 27.6054L12.344 24.3648C11.5989 24.1656 10.8763 23.8203 10.2666 23.3555L7.85042 25.1086C7.71493 25.2149 7.57944 25.2016 7.44396 25.0555L6.36006 23.7805C6.23588 23.6344 6.23588 23.475 6.32619 23.3024L7.81655 20.4602C7.46654 19.7563 7.1504 18.9195 6.99234 18.0563L4.22616 17.2859C4.05681 17.2461 3.96648 17.1398 3.96648 16.9274V15.1477C3.96648 14.9086 4.0455 14.8156 4.22616 14.7758L6.98105 14.0055C7.1504 13.1023 7.47783 12.2391 7.80525 11.575L6.3149 8.7461C6.22459 8.56016 6.21328 8.40079 6.34877 8.25469L7.43267 7.00626C7.56816 6.84688 7.69235 6.8336 7.85042 6.93984L10.2553 8.67968C10.786 8.26797 11.5876 7.88282 12.344 7.65703L13.0102 4.4164C13.0328 4.21719 13.1231 4.12423 13.315 4.12423H14.8732C15.0651 4.12423 15.1441 4.21719 15.178 4.4164L15.8441 7.6836C16.6119 7.88282 17.3118 8.25469 17.9216 8.67968L20.3264 6.95312C20.4845 6.84688 20.5974 6.86016 20.7443 7.00626L21.828 8.26797C21.9522 8.41407 21.9522 8.57344 21.8619 8.7461L20.3829 11.575C20.6991 12.2391 21.0265 13.1023 21.1958 13.9922L23.962 14.7758C24.1314 14.8156 24.2104 14.9086 24.2104 15.1477V16.9274C24.2104 17.1398 24.1314 17.2461 23.962 17.2859L21.1845 18.0563C21.0265 18.9195 20.7217 19.7696 20.3603 20.4602L21.8506 23.3024C21.9409 23.4618 21.9409 23.6211 21.8055 23.7672L20.733 25.0422C20.5974 25.1883 20.4619 25.2016 20.3264 25.0954L17.9103 23.3555C17.2893 23.8203 16.6345 24.1523 15.8441 24.3648L15.178 27.6054C15.1441 27.8046 15.0651 27.8976 14.8732 27.8976H13.315ZM14.0941 21.0445C16.4313 21.0445 18.3506 18.7734 18.3506 16.0109C18.3506 13.2617 16.4313 11.0172 14.0941 11.0172C11.7457 11.0172 9.81496 13.2617 9.81496 16.0109C9.81496 18.7734 11.7457 21.0445 14.0941 21.0445ZM14.0941 18.561C12.9086 18.561 11.9376 17.4187 11.9376 16.0109C11.9376 14.6297 12.9199 13.4875 14.0941 13.4875C15.257 13.4875 16.2279 14.643 16.2279 16.0109C16.2279 17.4054 15.257 18.561 14.0941 18.561Z" fill="#E0E0FF"/>
</svg>
