<svg xmlns="http://www.w3.org/2000/svg" width="20.694" height="20.694" viewBox="0 0 20.694 20.694">
  <path id="svgexport-6" d="M22.492,11.36l-1.654-1.332a.985.985,0,0,1-.36-.875l.229-2.113a1.882,1.882,0,0,0-2.076-2.08l-2.113.227a.983.983,0,0,1-.874-.36l-1.33-1.655a1.939,1.939,0,0,0-2.935,0L10.05,4.827a.977.977,0,0,1-.874.36l-2.11-.227A1.884,1.884,0,0,0,4.99,7.039l.229,2.113a.98.98,0,0,1-.36.875L3.2,11.36a1.887,1.887,0,0,0,0,2.94l1.654,1.332a.981.981,0,0,1,.36.875L4.988,18.62A1.882,1.882,0,0,0,7.064,20.7l2.111-.23a.982.982,0,0,1,.874.36l1.332,1.659a1.881,1.881,0,0,0,2.935,0l1.33-1.656a.983.983,0,0,1,.874-.36l2.11.23a1.884,1.884,0,0,0,2.077-2.079l-.229-2.114a.979.979,0,0,1,.36-.875L22.49,14.3a1.887,1.887,0,0,0,0-2.94Zm-9.284,4.234a1.6,1.6,0,0,1-2.4.171l-2.2-2.2a.9.9,0,1,1,1.272-1.274l2.026,2.028,3.517-4.7a.9.9,0,0,1,1.44,1.081Z" transform="translate(-2.5 -2.5)" fill="#384bff"/>
</svg>
