<svg xmlns="http://www.w3.org/2000/svg" width="23.999" height="23.992" viewBox="0 0 23.999 23.992">
  <g id="svgexport-22_1_" data-name="svgexport-22 (1)" transform="translate(0 0)">
    <path id="Path_2924" data-name="Path 2924" d="M4.988,11.423A1.017,1.017,0,0,1,6.01,10.405l1.694.006a1.018,1.018,0,0,1,1.019,1.018v6.406c.191-.056.436-.117.7-.18a.849.849,0,0,0,.654-.826V8.884A1.019,1.019,0,0,1,11.1,7.865h1.7a1.019,1.019,0,0,1,1.019,1.018v7.375s.425-.172.839-.347a.85.85,0,0,0,.519-.782V6.337a1.018,1.018,0,0,1,1.018-1.019h1.7a1.019,1.019,0,0,1,1.019,1.019v7.24a19.909,19.909,0,0,0,4.147-3.892,1.709,1.709,0,0,0,.26-1.6A11.989,11.989,0,1,0,1.593,18a1.516,1.516,0,0,0,1.447.749c.321-.028.721-.068,1.2-.124a.848.848,0,0,0,.752-.842V11.423" fill="#cdd3e5"/>
    <path id="Path_2925" data-name="Path 2925" d="M4.95,21.7A11.994,11.994,0,0,0,24,12c0-.276-.013-.549-.031-.821C19.586,17.711,11.494,20.766,4.95,21.7" fill="#cdd3e5"/>
  </g>
</svg>
