<svg xmlns="http://www.w3.org/2000/svg" width="36.88" height="36.88" viewBox="13.06 13.06 36.88 36.88"><g data-name="7099603_help_support_information_service_question_icon"><path d="M31.5 49.94c-10.184 0-18.44-8.256-18.44-18.44 0-10.184 8.256-18.44 18.44-18.44 10.184 0 18.44 8.256 18.44 18.44-.012 10.18-8.26 18.428-18.44 18.44Zm0-34.38c-8.803 0-15.94 7.137-15.94 15.94s7.137 15.94 15.94 15.94 15.94-7.137 15.94-15.94c-.01-8.8-7.14-15.93-15.94-15.94Z" fill="#fff" fill-rule="evenodd" data-name="Path 3745"/><path d="M29.622 38.642a1.878 1.878 0 1 1 0 .1z" fill="#fff" fill-rule="evenodd" data-name="Ellipse 973"/><path d="M31.5 34.45h-.012a1.249 1.249 0 0 1-1.238-1.262c.015-1.638 1.362-3.326 2.55-4.815.245-.307.48-.6.683-.872.33-.48.356-1.105.067-1.61a2.368 2.368 0 0 0-2-1.34c-1.447 0-2.63.87-2.63 1.9a1.25 1.25 0 1 1-2.5 0c0-2.427 2.281-4.4 5.085-4.4h.12a4.83 4.83 0 0 1 4.173 2.734 3.973 3.973 0 0 1-.309 4.213c-.217.291-.468.605-.73.934-.8 1-2 2.5-2 3.279A1.251 1.251 0 0 1 31.5 34.45Z" fill="#fff" fill-rule="evenodd" data-name="Path 3746"/></g></svg>