<svg id="svgexport-4" xmlns="http://www.w3.org/2000/svg" width="34.238" height="34.237" viewBox="0 0 34.238 34.237">
  <rect id="Rectangle_855" data-name="Rectangle 855" width="34.237" height="34.237" rx="17.119" fill="#2081e2"/>
  <path id="Path_2911" data-name="Path 2911" d="M5.928,14.542,6,14.426,10.455,7.46a.152.152,0,0,1,.267.019c.744,1.667,1.386,3.741,1.085,5.032a7.866,7.866,0,0,1-.876,1.915c-.051.1-.107.192-.167.283a.151.151,0,0,1-.127.067H6.058A.152.152,0,0,1,5.928,14.542Z" transform="translate(2.518 3.152)" fill="#fff"/>
  <path id="Path_2912" data-name="Path 2912" d="M26.145,16.941v1.1a.158.158,0,0,1-.095.144,5.482,5.482,0,0,0-2.016,1.372c-1.252,1.743-2.209,4.235-4.348,4.235H10.765A5.734,5.734,0,0,1,5.04,18.051v-.1a.153.153,0,0,1,.153-.153h4.974a.169.169,0,0,1,.162.188,1.7,1.7,0,0,0,.178.955,1.75,1.75,0,0,0,1.569.974h2.462V17.991H12.1a.157.157,0,0,1-.127-.246c.026-.041.056-.083.088-.13.23-.327.559-.835.886-1.414a11.082,11.082,0,0,0,.614-1.226c.035-.076.063-.153.091-.229.048-.134.1-.258.132-.383.035-.106.063-.216.091-.32A4.958,4.958,0,0,0,14,12.92c0-.153-.007-.313-.021-.466s-.028-.334-.049-.5c-.014-.148-.041-.294-.069-.447-.035-.223-.084-.445-.141-.668l-.019-.084c-.042-.153-.077-.3-.127-.452-.139-.48-.3-.948-.468-1.386-.062-.174-.132-.341-.2-.508-.1-.252-.209-.48-.306-.7-.049-.1-.091-.188-.134-.28s-.1-.208-.146-.306c-.035-.076-.076-.146-.1-.216l-.3-.556a.1.1,0,0,1,.111-.142l1.882.51h.005l.007,0,.248.069.273.077.1.028V5.778A.972.972,0,0,1,15.5,4.8a.955.955,0,0,1,.684.287.983.983,0,0,1,.283.691v1.66l.2.056a.161.161,0,0,1,.046.023c.049.037.12.091.209.158.07.056.146.125.237.2.181.146.4.334.635.55.063.055.125.111.181.167.306.285.649.619.976.988.091.1.181.209.273.32s.188.223.273.334c.111.148.23.3.334.461.049.076.105.153.153.229.134.2.252.412.364.621.048.1.1.2.139.306a4.469,4.469,0,0,1,.287.85,1.076,1.076,0,0,1,.041.188V12.9a1.618,1.618,0,0,1,.035.265,2.841,2.841,0,0,1-.049.878,3.215,3.215,0,0,1-.1.368c-.042.12-.084.245-.139.362a4.931,4.931,0,0,1-.378.718c-.048.084-.1.174-.16.258s-.125.174-.181.257c-.077.106-.16.216-.245.315a3.32,3.32,0,0,1-.237.3c-.118.139-.23.271-.348.4-.07.083-.146.167-.223.243s-.153.16-.223.23c-.118.118-.216.209-.3.285l-.193.178a.158.158,0,0,1-.1.039h-1.5v1.922h1.885a1.764,1.764,0,0,0,1.147-.424,13.757,13.757,0,0,0,1.166-1.147.147.147,0,0,1,.072-.044l5.208-1.505A.154.154,0,0,1,26.145,16.941Z" transform="translate(2.15 2.047)" fill="#fff"/>
</svg>
