<svg xmlns="http://www.w3.org/2000/svg" width="982" height="359" viewBox="0 0 982 359">
  <g id="Dots" transform="translate(-860 -940)">
    <g id="Group_11416" data-name="Group 11416" transform="translate(1381.744 940.018)">
      <g id="Group_11407" data-name="Group 11407" transform="translate(0 0)">
        <ellipse id="Ellipse_305" data-name="Ellipse 305" cx="2" cy="2.5" rx="2" ry="2.5" transform="translate(0.256 -0.018)" fill="#313133"/>
        <circle id="Ellipse_312" data-name="Ellipse 312" cx="2.5" cy="2.5" r="2.5" transform="translate(260.256 -0.018)" fill="#313133"/>
        <ellipse id="Ellipse_307" data-name="Ellipse 307" cx="2" cy="2.5" rx="2" ry="2.5" transform="translate(130.256 -0.018)" fill="#313133"/>
        <circle id="Ellipse_310" data-name="Ellipse 310" cx="2.5" cy="2.5" r="2.5" transform="translate(390.256 -0.018)" fill="#313133"/>
        <ellipse id="Ellipse_306" data-name="Ellipse 306" cx="2" cy="2.5" rx="2" ry="2.5" transform="translate(65.256 -0.018)" fill="#313133"/>
        <circle id="Ellipse_309" data-name="Ellipse 309" cx="2.5" cy="2.5" r="2.5" transform="translate(325.256 -0.018)" fill="#313133"/>
        <circle id="Ellipse_308" data-name="Ellipse 308" cx="2.5" cy="2.5" r="2.5" transform="translate(195.256 -0.018)" fill="#313133"/>
        <circle id="Ellipse_311" data-name="Ellipse 311" cx="2.5" cy="2.5" r="2.5" transform="translate(455.256 -0.018)" fill="#313133"/>
      </g>
      <g id="Group_11411" data-name="Group 11411" transform="translate(0 132.923)">
        <circle id="Ellipse_305-2" data-name="Ellipse 305" cx="2" cy="2" r="2" transform="translate(0.256 0.06)" fill="#313133"/>
        <ellipse id="Ellipse_312-2" data-name="Ellipse 312" cx="2.5" cy="2" rx="2.5" ry="2" transform="translate(260.256 0.06)" fill="#313133"/>
        <circle id="Ellipse_307-2" data-name="Ellipse 307" cx="2" cy="2" r="2" transform="translate(130.256 0.06)" fill="#313133"/>
        <ellipse id="Ellipse_310-2" data-name="Ellipse 310" cx="2.5" cy="2" rx="2.5" ry="2" transform="translate(390.256 0.06)" fill="#313133"/>
        <circle id="Ellipse_306-2" data-name="Ellipse 306" cx="2" cy="2" r="2" transform="translate(65.256 0.06)" fill="#313133"/>
        <ellipse id="Ellipse_309-2" data-name="Ellipse 309" cx="2.5" cy="2" rx="2.5" ry="2" transform="translate(325.256 0.06)" fill="#313133"/>
        <ellipse id="Ellipse_308-2" data-name="Ellipse 308" cx="2.5" cy="2" rx="2.5" ry="2" transform="translate(195.256 0.06)" fill="#313133"/>
        <ellipse id="Ellipse_311-2" data-name="Ellipse 311" cx="2.5" cy="2" rx="2.5" ry="2" transform="translate(455.256 0.06)" fill="#313133"/>
      </g>
      <g id="Group_11408" data-name="Group 11408" transform="translate(0 44.308)">
        <ellipse id="Ellipse_305-3" data-name="Ellipse 305" cx="2" cy="2.5" rx="2" ry="2.5" transform="translate(0.256 -0.325)" fill="#313133"/>
        <circle id="Ellipse_312-3" data-name="Ellipse 312" cx="2.5" cy="2.5" r="2.5" transform="translate(260.256 -0.325)" fill="#313133"/>
        <ellipse id="Ellipse_307-3" data-name="Ellipse 307" cx="2" cy="2.5" rx="2" ry="2.5" transform="translate(130.256 -0.325)" fill="#313133"/>
        <circle id="Ellipse_310-3" data-name="Ellipse 310" cx="2.5" cy="2.5" r="2.5" transform="translate(390.256 -0.325)" fill="#313133"/>
        <ellipse id="Ellipse_306-3" data-name="Ellipse 306" cx="2" cy="2.5" rx="2" ry="2.5" transform="translate(65.256 -0.325)" fill="#313133"/>
        <circle id="Ellipse_309-3" data-name="Ellipse 309" cx="2.5" cy="2.5" r="2.5" transform="translate(325.256 -0.325)" fill="#313133"/>
        <circle id="Ellipse_308-3" data-name="Ellipse 308" cx="2.5" cy="2.5" r="2.5" transform="translate(195.256 -0.325)" fill="#313133"/>
        <circle id="Ellipse_311-3" data-name="Ellipse 311" cx="2.5" cy="2.5" r="2.5" transform="translate(455.256 -0.325)" fill="#313133"/>
      </g>
      <g id="Group_11412" data-name="Group 11412" transform="translate(0 177.23)">
        <ellipse id="Ellipse_305-4" data-name="Ellipse 305" cx="2" cy="2.5" rx="2" ry="2.5" transform="translate(0.256 -0.249)" fill="#313133"/>
        <circle id="Ellipse_312-4" data-name="Ellipse 312" cx="2.5" cy="2.5" r="2.5" transform="translate(260.256 -0.249)" fill="#313133"/>
        <ellipse id="Ellipse_307-4" data-name="Ellipse 307" cx="2" cy="2.5" rx="2" ry="2.5" transform="translate(130.256 -0.249)" fill="#313133"/>
        <circle id="Ellipse_310-4" data-name="Ellipse 310" cx="2.5" cy="2.5" r="2.5" transform="translate(390.256 -0.249)" fill="#313133"/>
        <ellipse id="Ellipse_306-4" data-name="Ellipse 306" cx="2" cy="2.5" rx="2" ry="2.5" transform="translate(65.256 -0.249)" fill="#313133"/>
        <circle id="Ellipse_309-4" data-name="Ellipse 309" cx="2.5" cy="2.5" r="2.5" transform="translate(325.256 -0.249)" fill="#313133"/>
        <circle id="Ellipse_308-4" data-name="Ellipse 308" cx="2.5" cy="2.5" r="2.5" transform="translate(195.256 -0.249)" fill="#313133"/>
        <circle id="Ellipse_311-4" data-name="Ellipse 311" cx="2.5" cy="2.5" r="2.5" transform="translate(455.256 -0.249)" fill="#313133"/>
      </g>
      <g id="Group_11409" data-name="Group 11409" transform="translate(0 88.615)">
        <circle id="Ellipse_305-5" data-name="Ellipse 305" cx="2" cy="2" r="2" transform="translate(0.256 0.366)" fill="#313133"/>
        <ellipse id="Ellipse_312-5" data-name="Ellipse 312" cx="2.5" cy="2" rx="2.5" ry="2" transform="translate(260.256 0.366)" fill="#313133"/>
        <circle id="Ellipse_307-5" data-name="Ellipse 307" cx="2" cy="2" r="2" transform="translate(130.256 0.366)" fill="#313133"/>
        <ellipse id="Ellipse_310-5" data-name="Ellipse 310" cx="2.5" cy="2" rx="2.5" ry="2" transform="translate(390.256 0.366)" fill="#313133"/>
        <circle id="Ellipse_306-5" data-name="Ellipse 306" cx="2" cy="2" r="2" transform="translate(65.256 0.366)" fill="#313133"/>
        <ellipse id="Ellipse_309-5" data-name="Ellipse 309" cx="2.5" cy="2" rx="2.5" ry="2" transform="translate(325.256 0.366)" fill="#313133"/>
        <ellipse id="Ellipse_308-5" data-name="Ellipse 308" cx="2.5" cy="2" rx="2.5" ry="2" transform="translate(195.256 0.366)" fill="#313133"/>
        <ellipse id="Ellipse_311-5" data-name="Ellipse 311" cx="2.5" cy="2" rx="2.5" ry="2" transform="translate(455.256 0.366)" fill="#313133"/>
      </g>
      <g id="Group_11410" data-name="Group 11410" transform="translate(0 221.538)">
        <circle id="Ellipse_305-6" data-name="Ellipse 305" cx="2" cy="2" r="2" transform="translate(0.256 0.444)" fill="#313133"/>
        <ellipse id="Ellipse_312-6" data-name="Ellipse 312" cx="2.5" cy="2" rx="2.5" ry="2" transform="translate(260.256 0.444)" fill="#313133"/>
        <circle id="Ellipse_307-6" data-name="Ellipse 307" cx="2" cy="2" r="2" transform="translate(130.256 0.444)" fill="#313133"/>
        <ellipse id="Ellipse_310-6" data-name="Ellipse 310" cx="2.5" cy="2" rx="2.5" ry="2" transform="translate(390.256 0.444)" fill="#313133"/>
        <circle id="Ellipse_306-6" data-name="Ellipse 306" cx="2" cy="2" r="2" transform="translate(65.256 0.444)" fill="#313133"/>
        <ellipse id="Ellipse_309-6" data-name="Ellipse 309" cx="2.5" cy="2" rx="2.5" ry="2" transform="translate(325.256 0.444)" fill="#313133"/>
        <ellipse id="Ellipse_308-6" data-name="Ellipse 308" cx="2.5" cy="2" rx="2.5" ry="2" transform="translate(195.256 0.444)" fill="#313133"/>
        <ellipse id="Ellipse_311-6" data-name="Ellipse 311" cx="2.5" cy="2" rx="2.5" ry="2" transform="translate(455.256 0.444)" fill="#313133"/>
      </g>
      <g id="Group_11414" data-name="Group 11414" transform="translate(0 265.845)">
        <circle id="Ellipse_305-7" data-name="Ellipse 305" cx="2" cy="2" r="2" transform="translate(0.256 0.136)" fill="#313133"/>
        <ellipse id="Ellipse_312-7" data-name="Ellipse 312" cx="2.5" cy="2" rx="2.5" ry="2" transform="translate(260.256 0.136)" fill="#313133"/>
        <circle id="Ellipse_307-7" data-name="Ellipse 307" cx="2" cy="2" r="2" transform="translate(130.256 0.136)" fill="#313133"/>
        <ellipse id="Ellipse_310-7" data-name="Ellipse 310" cx="2.5" cy="2" rx="2.5" ry="2" transform="translate(390.256 0.136)" fill="#313133"/>
        <circle id="Ellipse_306-7" data-name="Ellipse 306" cx="2" cy="2" r="2" transform="translate(65.256 0.136)" fill="#313133"/>
        <ellipse id="Ellipse_309-7" data-name="Ellipse 309" cx="2.5" cy="2" rx="2.5" ry="2" transform="translate(325.256 0.136)" fill="#313133"/>
        <ellipse id="Ellipse_308-7" data-name="Ellipse 308" cx="2.5" cy="2" rx="2.5" ry="2" transform="translate(195.256 0.136)" fill="#313133"/>
        <ellipse id="Ellipse_311-7" data-name="Ellipse 311" cx="2.5" cy="2" rx="2.5" ry="2" transform="translate(455.256 0.136)" fill="#313133"/>
      </g>
      <g id="Group_11415" data-name="Group 11415" transform="translate(0 310.153)">
        <ellipse id="Ellipse_305-8" data-name="Ellipse 305" cx="2" cy="2.5" rx="2" ry="2.5" transform="translate(0.256 -0.171)" fill="#313133"/>
        <circle id="Ellipse_312-8" data-name="Ellipse 312" cx="2.5" cy="2.5" r="2.5" transform="translate(260.256 -0.171)" fill="#313133"/>
        <ellipse id="Ellipse_307-8" data-name="Ellipse 307" cx="2" cy="2.5" rx="2" ry="2.5" transform="translate(130.256 -0.171)" fill="#313133"/>
        <circle id="Ellipse_310-8" data-name="Ellipse 310" cx="2.5" cy="2.5" r="2.5" transform="translate(390.256 -0.171)" fill="#313133"/>
        <ellipse id="Ellipse_306-8" data-name="Ellipse 306" cx="2" cy="2.5" rx="2" ry="2.5" transform="translate(65.256 -0.171)" fill="#313133"/>
        <circle id="Ellipse_309-8" data-name="Ellipse 309" cx="2.5" cy="2.5" r="2.5" transform="translate(325.256 -0.171)" fill="#313133"/>
        <circle id="Ellipse_308-8" data-name="Ellipse 308" cx="2.5" cy="2.5" r="2.5" transform="translate(195.256 -0.171)" fill="#313133"/>
        <circle id="Ellipse_311-8" data-name="Ellipse 311" cx="2.5" cy="2.5" r="2.5" transform="translate(455.256 -0.171)" fill="#313133"/>
      </g>
      <g id="Group_11413" data-name="Group 11413" transform="translate(0 354.46)">
        <ellipse id="Ellipse_305-9" data-name="Ellipse 305" cx="2" cy="2.5" rx="2" ry="2.5" transform="translate(0.256 -0.479)" fill="#313133"/>
        <circle id="Ellipse_312-9" data-name="Ellipse 312" cx="2.5" cy="2.5" r="2.5" transform="translate(260.256 -0.479)" fill="#313133"/>
        <ellipse id="Ellipse_307-9" data-name="Ellipse 307" cx="2" cy="2.5" rx="2" ry="2.5" transform="translate(130.256 -0.479)" fill="#313133"/>
        <circle id="Ellipse_310-9" data-name="Ellipse 310" cx="2.5" cy="2.5" r="2.5" transform="translate(390.256 -0.479)" fill="#313133"/>
        <ellipse id="Ellipse_306-9" data-name="Ellipse 306" cx="2" cy="2.5" rx="2" ry="2.5" transform="translate(65.256 -0.479)" fill="#313133"/>
        <circle id="Ellipse_309-9" data-name="Ellipse 309" cx="2.5" cy="2.5" r="2.5" transform="translate(325.256 -0.479)" fill="#313133"/>
        <circle id="Ellipse_308-9" data-name="Ellipse 308" cx="2.5" cy="2.5" r="2.5" transform="translate(195.256 -0.479)" fill="#313133"/>
        <circle id="Ellipse_311-9" data-name="Ellipse 311" cx="2.5" cy="2.5" r="2.5" transform="translate(455.256 -0.479)" fill="#313133"/>
      </g>
    </g>
    <g id="Group_11418" data-name="Group 11418" transform="translate(860 940.018)">
      <g id="Group_11407-2" data-name="Group 11407" transform="translate(0 0)">
        <circle id="Ellipse_305-10" data-name="Ellipse 305" cx="2.5" cy="2.5" r="2.5" transform="translate(0 -0.018)" fill="#313133"/>
        <circle id="Ellipse_312-10" data-name="Ellipse 312" cx="2.5" cy="2.5" r="2.5" transform="translate(260 -0.018)" fill="#313133"/>
        <circle id="Ellipse_307-10" data-name="Ellipse 307" cx="2.5" cy="2.5" r="2.5" transform="translate(130 -0.018)" fill="#313133"/>
        <ellipse id="Ellipse_310-10" data-name="Ellipse 310" cx="2" cy="2.5" rx="2" ry="2.5" transform="translate(391 -0.018)" fill="#313133"/>
        <circle id="Ellipse_306-10" data-name="Ellipse 306" cx="2.5" cy="2.5" r="2.5" transform="translate(65 -0.018)" fill="#313133"/>
        <ellipse id="Ellipse_309-10" data-name="Ellipse 309" cx="2" cy="2.5" rx="2" ry="2.5" transform="translate(326 -0.018)" fill="#313133"/>
        <circle id="Ellipse_308-10" data-name="Ellipse 308" cx="2.5" cy="2.5" r="2.5" transform="translate(195 -0.018)" fill="#313133"/>
        <ellipse id="Ellipse_311-10" data-name="Ellipse 311" cx="2" cy="2.5" rx="2" ry="2.5" transform="translate(456 -0.018)" fill="#313133"/>
      </g>
      <g id="Group_11411-2" data-name="Group 11411" transform="translate(0 132.923)">
        <ellipse id="Ellipse_305-11" data-name="Ellipse 305" cx="2.5" cy="2" rx="2.5" ry="2" transform="translate(0 0.06)" fill="#313133"/>
        <ellipse id="Ellipse_312-11" data-name="Ellipse 312" cx="2.5" cy="2" rx="2.5" ry="2" transform="translate(260 0.06)" fill="#313133"/>
        <ellipse id="Ellipse_307-11" data-name="Ellipse 307" cx="2.5" cy="2" rx="2.5" ry="2" transform="translate(130 0.06)" fill="#313133"/>
        <circle id="Ellipse_310-11" data-name="Ellipse 310" cx="2" cy="2" r="2" transform="translate(391 0.06)" fill="#313133"/>
        <ellipse id="Ellipse_306-11" data-name="Ellipse 306" cx="2.5" cy="2" rx="2.5" ry="2" transform="translate(65 0.06)" fill="#313133"/>
        <circle id="Ellipse_309-11" data-name="Ellipse 309" cx="2" cy="2" r="2" transform="translate(326 0.06)" fill="#313133"/>
        <ellipse id="Ellipse_308-11" data-name="Ellipse 308" cx="2.5" cy="2" rx="2.5" ry="2" transform="translate(195 0.06)" fill="#313133"/>
        <circle id="Ellipse_311-11" data-name="Ellipse 311" cx="2" cy="2" r="2" transform="translate(456 0.06)" fill="#313133"/>
      </g>
      <g id="Group_11408-2" data-name="Group 11408" transform="translate(0 44.308)">
        <circle id="Ellipse_305-12" data-name="Ellipse 305" cx="2.5" cy="2.5" r="2.5" transform="translate(0 -0.325)" fill="#313133"/>
        <circle id="Ellipse_312-12" data-name="Ellipse 312" cx="2.5" cy="2.5" r="2.5" transform="translate(260 -0.325)" fill="#313133"/>
        <circle id="Ellipse_307-12" data-name="Ellipse 307" cx="2.5" cy="2.5" r="2.5" transform="translate(130 -0.325)" fill="#313133"/>
        <ellipse id="Ellipse_310-12" data-name="Ellipse 310" cx="2" cy="2.5" rx="2" ry="2.5" transform="translate(391 -0.325)" fill="#313133"/>
        <circle id="Ellipse_306-12" data-name="Ellipse 306" cx="2.5" cy="2.5" r="2.5" transform="translate(65 -0.325)" fill="#313133"/>
        <ellipse id="Ellipse_309-12" data-name="Ellipse 309" cx="2" cy="2.5" rx="2" ry="2.5" transform="translate(326 -0.325)" fill="#313133"/>
        <circle id="Ellipse_308-12" data-name="Ellipse 308" cx="2.5" cy="2.5" r="2.5" transform="translate(195 -0.325)" fill="#313133"/>
        <ellipse id="Ellipse_311-12" data-name="Ellipse 311" cx="2" cy="2.5" rx="2" ry="2.5" transform="translate(456 -0.325)" fill="#313133"/>
      </g>
      <g id="Group_11412-2" data-name="Group 11412" transform="translate(0 177.23)">
        <circle id="Ellipse_305-13" data-name="Ellipse 305" cx="2.5" cy="2.5" r="2.5" transform="translate(0 -0.249)" fill="#313133"/>
        <circle id="Ellipse_312-13" data-name="Ellipse 312" cx="2.5" cy="2.5" r="2.5" transform="translate(260 -0.249)" fill="#313133"/>
        <circle id="Ellipse_307-13" data-name="Ellipse 307" cx="2.5" cy="2.5" r="2.5" transform="translate(130 -0.249)" fill="#313133"/>
        <ellipse id="Ellipse_310-13" data-name="Ellipse 310" cx="2" cy="2.5" rx="2" ry="2.5" transform="translate(391 -0.249)" fill="#313133"/>
        <circle id="Ellipse_306-13" data-name="Ellipse 306" cx="2.5" cy="2.5" r="2.5" transform="translate(65 -0.249)" fill="#313133"/>
        <ellipse id="Ellipse_309-13" data-name="Ellipse 309" cx="2" cy="2.5" rx="2" ry="2.5" transform="translate(326 -0.249)" fill="#313133"/>
        <circle id="Ellipse_308-13" data-name="Ellipse 308" cx="2.5" cy="2.5" r="2.5" transform="translate(195 -0.249)" fill="#313133"/>
        <ellipse id="Ellipse_311-13" data-name="Ellipse 311" cx="2" cy="2.5" rx="2" ry="2.5" transform="translate(456 -0.249)" fill="#313133"/>
      </g>
      <g id="Group_11409-2" data-name="Group 11409" transform="translate(0 88.615)">
        <ellipse id="Ellipse_305-14" data-name="Ellipse 305" cx="2.5" cy="2" rx="2.5" ry="2" transform="translate(0 0.366)" fill="#313133"/>
        <ellipse id="Ellipse_312-14" data-name="Ellipse 312" cx="2.5" cy="2" rx="2.5" ry="2" transform="translate(260 0.366)" fill="#313133"/>
        <ellipse id="Ellipse_307-14" data-name="Ellipse 307" cx="2.5" cy="2" rx="2.5" ry="2" transform="translate(130 0.366)" fill="#313133"/>
        <circle id="Ellipse_310-14" data-name="Ellipse 310" cx="2" cy="2" r="2" transform="translate(391 0.366)" fill="#313133"/>
        <ellipse id="Ellipse_306-14" data-name="Ellipse 306" cx="2.5" cy="2" rx="2.5" ry="2" transform="translate(65 0.366)" fill="#313133"/>
        <circle id="Ellipse_309-14" data-name="Ellipse 309" cx="2" cy="2" r="2" transform="translate(326 0.366)" fill="#313133"/>
        <ellipse id="Ellipse_308-14" data-name="Ellipse 308" cx="2.5" cy="2" rx="2.5" ry="2" transform="translate(195 0.366)" fill="#313133"/>
        <circle id="Ellipse_311-14" data-name="Ellipse 311" cx="2" cy="2" r="2" transform="translate(456 0.366)" fill="#313133"/>
      </g>
      <g id="Group_11410-2" data-name="Group 11410" transform="translate(0 221.538)">
        <ellipse id="Ellipse_305-15" data-name="Ellipse 305" cx="2.5" cy="2" rx="2.5" ry="2" transform="translate(0 0.444)" fill="#313133"/>
        <ellipse id="Ellipse_312-15" data-name="Ellipse 312" cx="2.5" cy="2" rx="2.5" ry="2" transform="translate(260 0.444)" fill="#313133"/>
        <ellipse id="Ellipse_307-15" data-name="Ellipse 307" cx="2.5" cy="2" rx="2.5" ry="2" transform="translate(130 0.444)" fill="#313133"/>
        <circle id="Ellipse_310-15" data-name="Ellipse 310" cx="2" cy="2" r="2" transform="translate(391 0.444)" fill="#313133"/>
        <ellipse id="Ellipse_306-15" data-name="Ellipse 306" cx="2.5" cy="2" rx="2.5" ry="2" transform="translate(65 0.444)" fill="#313133"/>
        <circle id="Ellipse_309-15" data-name="Ellipse 309" cx="2" cy="2" r="2" transform="translate(326 0.444)" fill="#313133"/>
        <ellipse id="Ellipse_308-15" data-name="Ellipse 308" cx="2.5" cy="2" rx="2.5" ry="2" transform="translate(195 0.444)" fill="#313133"/>
        <circle id="Ellipse_311-15" data-name="Ellipse 311" cx="2" cy="2" r="2" transform="translate(456 0.444)" fill="#313133"/>
      </g>
      <g id="Group_11414-2" data-name="Group 11414" transform="translate(0 265.845)">
        <ellipse id="Ellipse_305-16" data-name="Ellipse 305" cx="2.5" cy="2" rx="2.5" ry="2" transform="translate(0 0.136)" fill="#313133"/>
        <ellipse id="Ellipse_312-16" data-name="Ellipse 312" cx="2.5" cy="2" rx="2.5" ry="2" transform="translate(260 0.136)" fill="#313133"/>
        <ellipse id="Ellipse_307-16" data-name="Ellipse 307" cx="2.5" cy="2" rx="2.5" ry="2" transform="translate(130 0.136)" fill="#313133"/>
        <circle id="Ellipse_310-16" data-name="Ellipse 310" cx="2" cy="2" r="2" transform="translate(391 0.136)" fill="#313133"/>
        <ellipse id="Ellipse_306-16" data-name="Ellipse 306" cx="2.5" cy="2" rx="2.5" ry="2" transform="translate(65 0.136)" fill="#313133"/>
        <circle id="Ellipse_309-16" data-name="Ellipse 309" cx="2" cy="2" r="2" transform="translate(326 0.136)" fill="#313133"/>
        <ellipse id="Ellipse_308-16" data-name="Ellipse 308" cx="2.5" cy="2" rx="2.5" ry="2" transform="translate(195 0.136)" fill="#313133"/>
        <circle id="Ellipse_311-16" data-name="Ellipse 311" cx="2" cy="2" r="2" transform="translate(456 0.136)" fill="#313133"/>
      </g>
      <g id="Group_11415-2" data-name="Group 11415" transform="translate(0 310.153)">
        <circle id="Ellipse_305-17" data-name="Ellipse 305" cx="2.5" cy="2.5" r="2.5" transform="translate(0 -0.171)" fill="#313133"/>
        <circle id="Ellipse_312-17" data-name="Ellipse 312" cx="2.5" cy="2.5" r="2.5" transform="translate(260 -0.171)" fill="#313133"/>
        <circle id="Ellipse_307-17" data-name="Ellipse 307" cx="2.5" cy="2.5" r="2.5" transform="translate(130 -0.171)" fill="#313133"/>
        <ellipse id="Ellipse_310-17" data-name="Ellipse 310" cx="2" cy="2.5" rx="2" ry="2.5" transform="translate(391 -0.171)" fill="#313133"/>
        <circle id="Ellipse_306-17" data-name="Ellipse 306" cx="2.5" cy="2.5" r="2.5" transform="translate(65 -0.171)" fill="#313133"/>
        <ellipse id="Ellipse_309-17" data-name="Ellipse 309" cx="2" cy="2.5" rx="2" ry="2.5" transform="translate(326 -0.171)" fill="#313133"/>
        <circle id="Ellipse_308-17" data-name="Ellipse 308" cx="2.5" cy="2.5" r="2.5" transform="translate(195 -0.171)" fill="#313133"/>
        <ellipse id="Ellipse_311-17" data-name="Ellipse 311" cx="2" cy="2.5" rx="2" ry="2.5" transform="translate(456 -0.171)" fill="#313133"/>
      </g>
      <g id="Group_11413-2" data-name="Group 11413" transform="translate(0 354.46)">
        <circle id="Ellipse_305-18" data-name="Ellipse 305" cx="2.5" cy="2.5" r="2.5" transform="translate(0 -0.479)" fill="#313133"/>
        <circle id="Ellipse_312-18" data-name="Ellipse 312" cx="2.5" cy="2.5" r="2.5" transform="translate(260 -0.479)" fill="#313133"/>
        <circle id="Ellipse_307-18" data-name="Ellipse 307" cx="2.5" cy="2.5" r="2.5" transform="translate(130 -0.479)" fill="#313133"/>
        <ellipse id="Ellipse_310-18" data-name="Ellipse 310" cx="2" cy="2.5" rx="2" ry="2.5" transform="translate(391 -0.479)" fill="#313133"/>
        <circle id="Ellipse_306-18" data-name="Ellipse 306" cx="2.5" cy="2.5" r="2.5" transform="translate(65 -0.479)" fill="#313133"/>
        <ellipse id="Ellipse_309-18" data-name="Ellipse 309" cx="2" cy="2.5" rx="2" ry="2.5" transform="translate(326 -0.479)" fill="#313133"/>
        <circle id="Ellipse_308-18" data-name="Ellipse 308" cx="2.5" cy="2.5" r="2.5" transform="translate(195 -0.479)" fill="#313133"/>
        <ellipse id="Ellipse_311-18" data-name="Ellipse 311" cx="2" cy="2.5" rx="2" ry="2.5" transform="translate(456 -0.479)" fill="#313133"/>
      </g>
    </g>
  </g>
</svg>
