<?xml version="1.0" standalone="no"?>
<!DOCTYPE svg PUBLIC "-//W3C//DTD SVG 20010904//EN"
 "http://www.w3.org/TR/2001/REC-SVG-20010904/DTD/svg10.dtd">
<svg version="1.0" xmlns="http://www.w3.org/2000/svg"
 width="700.000000pt" height="700.000000pt" viewBox="0 0 700.000000 700.000000"
 preserveAspectRatio="xMidYMid meet">
<metadata>
Created by potrace 1.14, written by Peter Selinger 2001-2017
</metadata>
<g transform="translate(0.000000,700.000000) scale(0.100000,-0.100000)"
fill="#000000" stroke="none">
<path d="M3200 6990 c-294 -30 -534 -79 -787 -161 -671 -218 -1266 -642 -1704
-1214 -185 -243 -370 -573 -474 -850 -21 -55 -41 -109 -46 -120 -54 -132 -133
-475 -166 -720 -18 -139 -25 -570 -11 -737 61 -735 382 -1471 883 -2027 156
-174 388 -383 545 -491 19 -13 37 -27 40 -30 9 -11 175 -117 265 -170 387
-227 909 -402 1330 -445 33 -4 71 -9 85 -12 45 -9 553 -12 631 -3 42 4 105 11
140 15 35 4 125 18 199 31 835 152 1593 608 2119 1277 376 478 614 1023 710
1628 30 188 36 280 36 564 -1 261 -8 354 -46 575 -191 1111 -918 2070 -1942
2560 -324 155 -708 269 -1042 310 -49 6 -103 13 -120 16 -50 9 -565 12 -645 4z"/>
</g>
</svg>
