<svg xmlns="http://www.w3.org/2000/svg" width="137.495" height="44.031" viewBox="0 0 137.495 44.031">
  <path id="Union_281" data-name="Union 281" d="M957.76,17910.754v-11.682c-2.2,2.3-5.709,3.461-10.073,3.461-6.536,0-12.069-2.707-12.069-10.416s5.533-10.445,12.069-10.445c4.365,0,7.871,1.2,10.073,3.461v-3.119h5.915v28.74Zm-16.263-18.637c0,3.975,2.886,5.516,8.149,5.516s8.114-1.541,8.114-5.516c0-4.01-2.854-5.551-8.114-5.551S941.5,17888.107,941.5,17892.117Zm-68.135,15.48h-7.947l-7.943-7.717v-8.131l15.89-23.631,3.861,5.744-5.2,7.746.009,0-7.381,10.977v4.459l4.356,4.234h8.716l.023-.018,4.971,4.967-1.407,1.365Zm6.612-8.5,2.108-2.049v-4.459l-6.85-10.182,3.87-5.754,10.15,15.1v8.131l-4.306,4.18Zm85.936-6.98c0-7.709,5.569-10.445,12.069-10.445,4.365,0,7.907,1.2,10.109,3.492v-10.379h5.879v27.406h-5.879v-3.156c-2.2,2.3-5.745,3.5-10.109,3.5C971.479,17902.533,965.91,17899.826,965.91,17892.117Zm5.915,0c0,3.975,2.854,5.516,8.113,5.516s8.149-1.541,8.149-5.516c0-4.01-2.89-5.551-8.149-5.551S971.825,17888.107,971.825,17892.117Zm-44.325,10.074v-20.178h5.88v20.178Zm-27.163,0v-23.98h6.19v18.807H925.1v5.174Zm27.163-22.3v-5.1h5.88v5.1Z" transform="translate(-856.972 -17867.223)" fill="#d5dfea" stroke="rgba(0,0,0,0)" stroke-width="1"/>
</svg>
