<svg xmlns="http://www.w3.org/2000/svg" xmlns:xlink="http://www.w3.org/1999/xlink" width="242.6" height="93.812" viewBox="0 0 242.6 93.812">
  <defs>
    <linearGradient id="linear-gradient" x1="0.094" y1="0.173" x2="1.342" y2="1.491" gradientUnits="objectBoundingBox">
      <stop offset="0"/>
      <stop offset="1" stop-opacity="0.729"/>
    </linearGradient>
  </defs>
  <path id="Path_3117" data-name="Path 3117" d="M24.227-96.233v-48.527H8.256v61.874H72.138V-96.233ZM78.349-153.6v13.17H93.521V-153.6Zm0,18.651v52.063H93.521v-52.063Zm78.079,0v8.044c-5.678-5.834-14.728-8.928-26-8.928-16.858,0-31.143,7.071-31.143,26.96S113.573-82,130.431-82c11.268,0,20.318-3.005,26-8.928v30.142h15.261v-74.161ZM135.489-94.642c-13.575,0-21.028-3.978-21.028-14.231,0-10.342,7.453-14.32,21.028-14.32s20.939,3.978,20.939,14.32C156.428-98.62,149.064-94.642,135.489-94.642Zm99.2-58.958v26.783c-5.678-5.922-14.817-9.016-26.085-9.016-16.769,0-31.143,7.071-31.143,26.96S191.829-82,208.6-82c11.268,0,20.407-3.094,26.085-9.016v8.132h15.172V-153.6ZM213.656-94.642c-13.575,0-20.939-3.978-20.939-14.231,0-10.342,7.364-14.32,20.939-14.32s21.028,3.978,21.028,14.32C234.684-98.62,227.231-94.642,213.656-94.642Z" transform="translate(-7.756 154.1)" stroke="rgba(0,0,0,0)" stroke-miterlimit="10" stroke-width="1" fill="url(#linear-gradient)"/>
</svg>